<svg xmlns="http://www.w3.org/2000/svg" width="278.713" height="327.455" viewBox="0 0 278.713 327.455">
  <g id="hero-banner" transform="translate(2074.14 -3395.398)">
    <g id="Grupo_2011" data-name="Grupo 2011">
      <g id="进行中" transform="translate(-2152.907 3371.699)">
        <path id="Caminho_1287" data-name="Caminho 1287" d="M210.195,177.3a66.574,66.574,0,1,0-66.574-66.575A66.574,66.574,0,0,0,210.195,177.3Z" transform="translate(11.354 59.321)" fill="none" stroke="#fff" stroke-miterlimit="10" stroke-width="0.379"/>
        <path id="Caminho_1288" data-name="Caminho 1288" d="M205.941,148.952a42.482,42.482,0,1,0-42.482-42.482A42.482,42.482,0,0,0,205.941,148.952Z" transform="translate(15.607 63.574)" fill="none" stroke="#fff" stroke-miterlimit="10" stroke-width="0.379"/>
        <path id="Caminho_1289" data-name="Caminho 1289" d="M221.121,208.34a90.3,90.3,0,1,0-90.3-90.3,90.3,90.3,0,0,0,90.3,90.3Zm-117.148-90.3H92.662a128.434,128.434,0,0,1,45.425-98.02l7.356,8.643a116.855,116.855,0,0,0-41.47,89.379ZM279.691,10a124.446,124.446,0,0,1,31.816,24.736m10.761,165.881-4.873-3.954a123.649,123.649,0,0,0,26.665-60.321l6.253.921a128.939,128.939,0,0,1-28.045,63.354Z" transform="translate(0.43 52)" fill="none" stroke="#fff" stroke-miterlimit="10" stroke-width="0.379"/>
        <path id="Caminho_1290" data-name="Caminho 1290" d="M211.733,218.627h-30.16c-8.552,0-12.781-3.678-15.264-11.31-2.023-6.162,1.012-24.828,1.012-24.828h76.32s3.035,18.759,1.012,24.828c-2.482,7.631-6.713,11.31-15.264,11.31H211.733Z" transform="translate(18.14 36.979)" fill="#feba0c" stroke="#000" stroke-miterlimit="10" stroke-width="0.757"/>
        <path id="Caminho_1291" data-name="Caminho 1291" d="M236.158,206.762s.092,10.851,4.6,3.219c0,0-1.839,4.23-4.6,6.068Zm-57.1-24.274c17.838.459,17.287,1.563,25.287,1.471,7.263-.092,6.9-1.012,19.493-1.012,10.85,0,16.919-.368,18.207,10.391l-1.288-10.759-61.7-.091Z" transform="translate(21.022 36.978)"/>
        <path id="Caminho_1292" data-name="Caminho 1292" d="M155.734,226.233H266.9M207.6,188.718V147.431" transform="translate(16.022 29.463)" fill="none" stroke="#000" stroke-linecap="round" stroke-miterlimit="10" stroke-width="0.757"/>
        <path id="Caminho_1293" data-name="Caminho 1293" d="M296.473,179.006H129.764v4.23H296.473v-4.23Z" transform="translate(10.454 36.232)" fill="#fff" stroke="#000" stroke-miterlimit="10" stroke-width="0.757"/>
        <path id="Caminho_1294" data-name="Caminho 1294" d="M187.965,98.784s-2.942,13.425-.736,19.586c0,0,28.046-5.332,43.953,5.977,0,0,0-4.413-5.7-9.288-5.425-4.689-10.942-6.161-11.31-14.62,0,0-17.379-8.827-26.206-1.655Z" transform="translate(22.598 18.432)"/>
        <path id="Caminho_1295" data-name="Caminho 1295" d="M216.117,97.217a3,3,0,0,0-2.208.185A12.738,12.738,0,0,0,201.5,86.551a12.594,12.594,0,0,0-12.6,10.575,2.616,2.616,0,0,0-2.208-.277,2.906,2.906,0,0,0-2.022,2.208,2.824,2.824,0,0,0,2.85,3.4,4.582,4.582,0,0,0,1.1-.183.474.474,0,0,1,.644.276,12.627,12.627,0,0,0,24.276.277.475.475,0,0,1,.644-.277,4.772,4.772,0,0,0,1.1.276,2.914,2.914,0,0,0,2.85-3.4,3.052,3.052,0,0,0-2.022-2.208Z" transform="translate(22.212 16.411)" fill="#ffc7de" stroke="#000" stroke-miterlimit="10" stroke-width="0.757"/>
        <path id="Caminho_1296" data-name="Caminho 1296" d="M200.79,86.627s-9.839-.551-12.874,10.759a4.978,4.978,0,0,1,.736.551.733.733,0,0,0,1.195-.368c.551-1.84,1.84-4.873,3.494-4.967,1.288-.091,1.38,5.7,8.92,5.7,5.334,0,10.024.185,10.483-.183a5.153,5.153,0,0,1,.736-.551c-2.85-11.4-12.689-10.942-12.689-10.942Z" transform="translate(22.921 16.427)"/>
        <path id="Caminho_1297" data-name="Caminho 1297" d="M210.932,110.857c8.368,0,15.54.919,26.114,7.632,17.2,10.942,27.954,27.033,34.85,36.689,6.529,9.2,9.563,16.919,8.276,25.654-1.195,8.276-9.471,12.69-17.379,12.69H156.4c-5.885,0-13.793-4.507-15.08-12.69-1.287-8.735,1.747-16.459,8.276-25.654,6.9-9.656,17.655-25.84,34.85-36.689,10.575-6.713,17.747-7.632,26.114-7.632h.368Z" transform="translate(12.87 21.622)" fill="#e53036" stroke="#000" stroke-miterlimit="10" stroke-width="0.757"/>
        <path id="Caminho_1298" data-name="Caminho 1298" d="M186.551,113.022c2.39,4.414,7.816,6.9,14.161,6.9s11.861-2.759,14.252-6.989C214.964,112.929,202.367,107.688,186.551,113.022Z" transform="translate(22.628 21.573)" fill="#ffc7de" stroke="#000" stroke-miterlimit="10" stroke-width="0.757"/>
        <path id="Caminho_1299" data-name="Caminho 1299" d="M193.888,111.235s-4.414.644-4.782,2.023c-.459,1.563,1.472,4.046,8,6.161.092,0-7.54-.827-10.39-6.62C185.8,111.235,193.888,111.235,193.888,111.235Z" transform="translate(22.648 21.703)"/>
        <path id="Caminho_1300" data-name="Caminho 1300" d="M158.585,153.865h15.1m71.356,0h9.747" transform="translate(16.638 30.842)" fill="none" stroke="#000" stroke-linecap="round" stroke-linejoin="round" stroke-miterlimit="10" stroke-width="0.757"/>
        <path id="Caminho_1301" data-name="Caminho 1301" d="M233.369,184.393h-3.127V178.6A7.036,7.036,0,0,0,233.369,184.393Z" transform="translate(31.995 30.842)"/>
        <path id="Caminho_1304" data-name="Caminho 1304" d="M171.292,205.917s-.644-20.873,17.93-19.4c9.2,1.287,14.9,9.288,13.793,19.127l-4.322,90.021,1.655,3.495-31.816,5.793v-9.288l2.759-89.745Z" transform="translate(18.766 37.826)" fill="#ffc7de" stroke="#000" stroke-miterlimit="10" stroke-width="0.757"/>
        <path id="Caminho_1305" data-name="Caminho 1305" d="M178.148,184.991s14.713-.368,21.425,8.552m28.965-8.553s-14.62-.735-20.5,7.725" transform="translate(20.827 37.511)" fill="none" stroke="#000" stroke-linecap="round" stroke-linejoin="round" stroke-miterlimit="10" stroke-width="0.757"/>
        <path id="Caminho_1306" data-name="Caminho 1306" d="M188.75,187.184h.276c4.782,1.931,9.1,4.689,11.494,10.942a1.089,1.089,0,0,0,2.023.092c.644-1.287,1.195-2.574,1.1-2.3-1.38,3.218-.921,9.2-.828,11.494l.828,10.3h-5.7s1.655-15.724-.183-20.873c-2.208-5.885-9.012-9.654-9.012-9.654Z" transform="translate(23.1 37.985)"/>
        <path id="Caminho_1307" data-name="Caminho 1307" d="M174.668,201.191l1.287,3.035" transform="translate(20.081 40.988)" fill="none" stroke="#000" stroke-linecap="round" stroke-linejoin="round" stroke-miterlimit="10" stroke-width="0.757"/>
        <path id="Caminho_1308" data-name="Caminho 1308" d="M169.832,293.669h32.735a2.238,2.238,0,0,0,2.208-2.207V289.99c0-1.38-5.885-13.608-5.885-13.608l.827,1.839a3.243,3.243,0,0,0-2.85-1.839H176.36a6.491,6.491,0,0,0-3.862,1.287l-.827.644a1.589,1.589,0,0,1-2.3-.553l-.644-1.378-1.1,15.08A2.123,2.123,0,0,0,169.832,293.669Z" transform="translate(18.57 57.108)" fill="#0097e0" stroke="#000" stroke-miterlimit="10" stroke-width="0.757"/>
        <path id="Caminho_1309" data-name="Caminho 1309" d="M204.756,288.193H167.7" transform="translate(18.587 59.64)" fill="none" stroke="#000" stroke-linecap="round" stroke-linejoin="round" stroke-miterlimit="10" stroke-width="0.757"/>
        <path id="Caminho_1310" data-name="Caminho 1310" d="M231.705,205.917s.644-20.873-17.93-19.4c-9.2,1.287-14.9,9.288-13.793,19.127l4.322,90.021-1.655,3.495,31.816,5.793v-9.288l-2.759-89.745Z" transform="translate(25.479 37.826)" fill="#ffc7de" stroke="#000" stroke-miterlimit="10" stroke-width="0.757"/>
        <path id="Caminho_1311" data-name="Caminho 1311" d="M222.445,201.191l-1.287,3.035" transform="translate(30.047 40.988)" fill="none" stroke="#000" stroke-linecap="round" stroke-linejoin="round" stroke-miterlimit="10" stroke-width="0.757"/>
        <path id="Caminho_1312" data-name="Caminho 1312" d="M233.611,293.669H200.877a2.238,2.238,0,0,1-2.207-2.207V289.99c0-1.38,5.885-13.608,5.885-13.608l-.828,1.839a3.245,3.245,0,0,1,2.851-1.839h20.5a6.489,6.489,0,0,1,3.862,1.287l.828.644a1.589,1.589,0,0,0,2.3-.553l.644-1.378,1.1,15.08A2.179,2.179,0,0,1,233.611,293.669Z" transform="translate(25.226 57.108)" fill="#0097e0" stroke="#000" stroke-miterlimit="10" stroke-width="0.757"/>
        <path id="Caminho_1313" data-name="Caminho 1313" d="M198.67,288.193h36.6" transform="translate(25.226 59.64)" fill="none" stroke="#000" stroke-linecap="round" stroke-linejoin="round" stroke-miterlimit="10" stroke-width="0.757"/>
        <path id="Caminho_1314" data-name="Caminho 1314" d="M241.755,280.7v5.793a2.732,2.732,0,0,1-2.574,2.759c-2.85.183-7.632.551-11.954.551h15.357Zm-73.47,0,.091,5.7a2.732,2.732,0,0,0,2.574,2.758c2.851.185,7.632.551,11.954.551H167.549l.736-9.011Z" transform="translate(18.555 58.033)"/>
        <path id="Caminho_1315" data-name="Caminho 1315" d="M210.5,294.435h15.816m-46.806,0h15.815m73.746-82.112h4.873" transform="translate(21.119 43.375)" fill="none" stroke="#000" stroke-linecap="round" stroke-linejoin="round" stroke-miterlimit="10" stroke-width="0.757"/>
        <path id="Caminho_1318" data-name="Caminho 1318" d="M118.1,290.617H320.4" transform="translate(7.954 60.159)" fill="none" stroke="#000" stroke-linecap="round" stroke-miterlimit="10" stroke-width="0.757"/>
      </g>
      <g id="找不到" transform="translate(-2074.674 3500.139)">
        <path id="Caminho_1638" data-name="Caminho 1638" d="M166.107,43.353H126.846V100.3h39.283V43.668A1.6,1.6,0,0,0,166.107,43.353Z" transform="translate(-2.258 -14.165)" fill="#fff" stroke="#000" stroke-miterlimit="10" stroke-width="0.852"/>
        <path id="Caminho_1639" data-name="Caminho 1639" d="M126.846,86.4a5.419,5.419,0,0,0,5.416,5.416h28.451a5.419,5.419,0,0,0,5.416-5.416v-.27H126.846Zm33.867-62.3H132.262a5.4,5.4,0,0,0-5.393,5.1h39.261a5.436,5.436,0,0,0-5.416-5.1Z" transform="translate(-2.258 0)" fill="#feba0c" stroke="#000" stroke-linecap="round" stroke-linejoin="round" stroke-miterlimit="10" stroke-width="0.852"/>
        <path id="Caminho_1642" data-name="Caminho 1642" d="M124.566,63.705h-.787v6.337h.787Zm0,8.293h-.787v6.337h.787Z" transform="translate(0 -29.146)" fill="#dedfea" stroke="#000" stroke-linecap="round" stroke-linejoin="round" stroke-miterlimit="10" stroke-width="0.852"/>
      </g>
      <g id="Grupo_2009" data-name="Grupo 2009" transform="matrix(-0.087, -0.996, 0.996, -0.087, -2125.412, 3739.823)">
        <path id="Caminho_1673" data-name="Caminho 1673" d="M140.638,194.753a3.841,3.841,0,0,1-1.192-5.28l2.639-4.087a3.827,3.827,0,0,1,6.472,4.087l-2.64,4.088a3.84,3.84,0,0,1-5.279,1.192Z" stroke="#000" stroke-linecap="round" stroke-linejoin="round" stroke-miterlimit="10" stroke-width="0.852"/>
        <path id="Caminho_1674" data-name="Caminho 1674" d="M149.494,196.456a3.816,3.816,0,0,1-3.747-3.917l.171-6.046a3.832,3.832,0,0,1,7.663.171l-.17,6.045a3.928,3.928,0,0,1-3.917,3.747Z" stroke="#000" stroke-linecap="round" stroke-linejoin="round" stroke-miterlimit="10" stroke-width="0.852"/>
        <path id="Caminho_1675" data-name="Caminho 1675" d="M155.965,196.626a3.816,3.816,0,0,1-3.747-3.917l.17-6.045a3.833,3.833,0,1,1,7.664.17l-.17,6.046a3.815,3.815,0,0,1-3.917,3.746Z" stroke="#000" stroke-linecap="round" stroke-linejoin="round" stroke-miterlimit="10" stroke-width="0.852"/>
        <path id="Caminho_1676" data-name="Caminho 1676" d="M166.1,190.325l-.086,2.725a3.832,3.832,0,1,1-7.663-.17l.085-2.81"/>
        <path id="Caminho_1677" data-name="Caminho 1677" d="M166.1,190.325l-.086,2.725a3.832,3.832,0,1,1-7.663-.17l.085-2.81" fill="none" stroke="#000" stroke-linecap="round" stroke-linejoin="round" stroke-miterlimit="10" stroke-width="0.852"/>
        <path id="Caminho_1678" data-name="Caminho 1678" d="M138.169,192.369a3.842,3.842,0,0,1-1.192-5.28l2.725-4.342a3.827,3.827,0,1,1,6.471,4.087l-2.724,4.343a3.92,3.92,0,0,1-5.28,1.192Z" fill="#ffc7de" stroke="#000" stroke-linecap="round" stroke-linejoin="round" stroke-miterlimit="10" stroke-width="0.852"/>
        <path id="Caminho_1679" data-name="Caminho 1679" d="M147.707,194.923a3.8,3.8,0,0,1-3.151-4.428l.851-5.364a3.843,3.843,0,1,1,7.579,1.277l-.852,5.364a3.861,3.861,0,0,1-4.427,3.151Z" fill="#ffc7de" stroke="#000" stroke-linecap="round" stroke-linejoin="round" stroke-miterlimit="10" stroke-width="0.852"/>
        <path id="Caminho_1680" data-name="Caminho 1680" d="M154.773,195.178a3.816,3.816,0,0,1-3.747-3.917l.171-5.449a3.832,3.832,0,1,1,7.663.17l-.17,5.45a3.764,3.764,0,0,1-3.917,3.746Z" fill="#ffc7de" stroke="#000" stroke-linecap="round" stroke-linejoin="round" stroke-miterlimit="10" stroke-width="0.852"/>
        <path id="Caminho_1681" data-name="Caminho 1681" d="M161.244,195.349a3.816,3.816,0,0,1-3.747-3.917l.171-5.364a3.716,3.716,0,0,1,3.916-3.747c4.343,0,6.131,5.705,6.131,7.834l-2.469-.511V191.6a3.89,3.89,0,0,1-4,3.746Z" fill="#ffc7de" stroke="#000" stroke-linecap="round" stroke-linejoin="round" stroke-miterlimit="10" stroke-width="0.852"/>
        <path id="Caminho_1682" data-name="Caminho 1682" d="M168.653,177.893l-1.022,12.347" fill="none" stroke="#000" stroke-linecap="round" stroke-linejoin="round" stroke-miterlimit="10" stroke-width="0.852"/>
      </g>
      <g id="Grupo_2010" data-name="Grupo 2010" transform="translate(-1919.308 3554.565)">
        <g id="Caminho_1673-2" data-name="Caminho 1673" transform="translate(0.386 18.902)" stroke-linecap="round" stroke-linejoin="round" stroke-miterlimit="10">
          <path d="M1.242,8.993a3.7,3.7,0,0,0,.92,1.2,3.81,3.81,0,0,0,1.275.723,3.895,3.895,0,0,0,2.931-.184l4.34-2.2a3.7,3.7,0,0,0,1.2-.92,3.812,3.812,0,0,0,.723-1.276,3.894,3.894,0,0,0-.184-2.931,3.7,3.7,0,0,0-.92-1.2,3.811,3.811,0,0,0-1.275-.723,3.893,3.893,0,0,0-2.93.184L2.98,3.868a3.7,3.7,0,0,0-1.2.92,3.811,3.811,0,0,0-.723,1.275,3.892,3.892,0,0,0,.184,2.93Z" stroke="none"/>
          <path d="M 0.453460693359375 6.850906372070312 C 0.43243408203125 7.05072021484375 0.4254608154296875 7.250885009765625 0.4322357177734375 7.450027465820312 C 0.4390106201171875 7.649185180664062 0.45953369140625 7.847335815429688 0.4936370849609375 8.043106079101562 C 0.5277252197265625 8.238876342773438 0.5753326416015625 8.432281494140625 0.636260986328125 8.6219482421875 C 0.6971588134765625 8.811599731445312 0.771392822265625 8.997528076171875 0.858673095703125 9.178375244140625 C 1.11138916015625 9.702011108398438 1.460586547851562 10.14900207519531 1.875534057617188 10.50892639160156 C 2.290481567382812 10.86882019042969 2.771133422851562 11.14164733886719 3.286758422851562 11.31694030761719 C 3.802398681640625 11.49221801757812 4.352981567382812 11.56993103027344 4.907745361328125 11.53965759277344 C 5.4625244140625 11.50936889648438 6.021499633789062 11.37106323242188 6.553863525390625 11.11430358886719 C 6.554473876953125 11.11399841308594 6.555084228515625 11.11370849609375 6.555679321289062 11.11341857910156 C 6.556304931640625 11.11311340332031 6.556915283203125 11.11280822753906 6.557525634765625 11.11250305175781 C 6.558135986328125 11.11221313476562 6.558761596679688 11.11190795898438 6.55938720703125 11.11160278320312 C 6.559982299804688 11.11129760742188 6.56060791015625 11.11099243164062 6.561203002929688 11.11065673828125 L 10.89813232421875 8.915130615234375 C 11.22531127929688 8.7568359375 11.52529907226562 8.559494018554688 11.79368591308594 8.329498291015625 C 12.06205749511719 8.0994873046875 12.29878234863281 7.8367919921875 12.49948120117188 7.547836303710938 C 12.70018005371094 7.258865356445312 12.86480712890625 6.943588256835938 12.98893737792969 6.608383178710938 C 13.11308288574219 6.273162841796875 13.19674682617188 5.918045043945312 13.23550415039062 5.54937744140625 C 13.25650024414062 5.349517822265625 13.26348876953125 5.1492919921875 13.2567138671875 4.950103759765625 C 13.24995422363281 4.750930786132812 13.22940063476562 4.552749633789062 13.19532775878906 4.356964111328125 C 13.16122436523438 4.161148071289062 13.11363220214844 3.967742919921875 13.05268859863281 3.778060913085938 C 12.99179077148438 3.588394165039062 12.91757202148438 3.4024658203125 12.83030700683594 3.22161865234375 C 12.57756042480469 2.69793701171875 12.22833251953125 2.250885009765625 11.81343078613281 1.890945434570312 C 11.39851379394531 1.531005859375 10.91789245605469 1.2581787109375 10.40235900878906 1.082901000976562 C 9.886825561523438 0.9076385498046875 9.336334228515625 0.8299407958984375 8.78167724609375 0.8602752685546875 C 8.22705078125 0.890625 7.668212890625 1.02899169921875 7.136001586914062 1.285858154296875 C 7.1353759765625 1.286148071289062 7.134780883789062 1.286422729492188 7.134170532226562 1.286727905273438 C 7.133560180664062 1.287017822265625 7.132965087890625 1.287322998046875 7.132354736328125 1.287628173828125 C 7.131744384765625 1.287933349609375 7.131134033203125 1.288238525390625 7.130523681640625 1.288543701171875 C 7.12994384765625 1.288833618164062 7.12933349609375 1.289138793945312 7.12872314453125 1.289443969726562 L 2.790756225585938 3.485855102539062 C 2.463577270507812 3.644134521484375 2.163589477539062 3.841476440429688 1.895233154296875 4.071426391601562 C 1.626861572265625 4.301406860351562 1.390121459960938 4.564056396484375 1.189437866210938 4.85296630859375 C 0.98876953125 5.141860961914062 0.8241424560546875 5.457077026367188 0.6999969482421875 5.79217529296875 C 0.5758514404296875 6.1273193359375 0.4922027587890625 6.482345581054688 0.453460693359375 6.850906372070312 Z M 6.180404663085938 10.34849548339844 C 5.753952026367188 10.55361938476562 5.306488037109375 10.664306640625 4.862518310546875 10.68882751464844 C 4.4185791015625 10.71337890625 3.978164672851562 10.65179443359375 3.56585693359375 10.51234436035156 C 3.153533935546875 10.37290954589844 2.76934814453125 10.1556396484375 2.437850952148438 9.868820190429688 C 2.106338500976562 9.582000732421875 1.827529907226562 9.22564697265625 1.625991821289062 8.80804443359375 C 1.555923461914062 8.66290283203125 1.496368408203125 8.513687133789062 1.447463989257812 8.361480712890625 C 1.398574829101562 8.209243774414062 1.360366821289062 8.05401611328125 1.3330078125 7.896896362304688 C 1.3056640625 7.739761352539062 1.2891845703125 7.580734252929688 1.28375244140625 7.420883178710938 C 1.278305053710938 7.261032104492188 1.283935546875 7.100372314453125 1.300796508789062 6.939971923828125 C 1.331802368164062 6.64495849609375 1.398605346679688 6.360870361328125 1.497665405273438 6.09283447265625 C 1.59674072265625 5.824783325195312 1.72808837890625 5.572799682617188 1.88812255859375 5.341949462890625 C 2.048187255859375 5.111083984375 2.236953735351562 4.901382446289062 2.450912475585938 4.717926025390625 C 2.66485595703125 4.534454345703125 2.90399169921875 4.377243041992188 3.164764404296875 4.251388549804688 C 3.165374755859375 4.2510986328125 3.165985107421875 4.25079345703125 3.166610717773438 4.25048828125 C 3.167190551757812 4.250198364257812 3.16778564453125 4.249923706054688 3.168411254882812 4.249618530273438 C 3.169036865234375 4.249313354492188 3.169631958007812 4.249008178710938 3.17022705078125 4.248687744140625 C 3.17083740234375 4.248382568359375 3.171432495117188 4.248092651367188 3.172042846679688 4.247787475585938 L 7.509750366210938 2.051498413085938 C 7.93603515625 1.846343994140625 8.383346557617188 1.735626220703125 8.8271484375 1.711044311523438 C 9.27093505859375 1.686477661132812 9.71124267578125 1.748062133789062 10.12342834472656 1.88751220703125 C 10.53562927246094 2.026962280273438 10.91973876953125 2.244232177734375 11.25119018554688 2.531082153320312 C 11.58262634277344 2.81793212890625 11.86141967773438 3.174301147460938 12.06300354003906 3.591934204101562 C 12.13302612304688 3.737091064453125 12.19259643554688 3.886306762695312 12.24148559570312 4.038528442382812 C 12.29037475585938 4.190765380859375 12.32858276367188 4.346023559570312 12.35592651367188 4.503173828125 C 12.38327026367188 4.66033935546875 12.3997802734375 4.81939697265625 12.40521240234375 4.979278564453125 C 12.41064453125 5.139175415039062 12.405029296875 5.29986572265625 12.38815307617188 5.4603271484375 C 12.35714721679688 5.755462646484375 12.29031372070312 6.039642333984375 12.19123840332031 6.307754516601562 C 12.09214782714844 6.575897216796875 11.96083068847656 6.827972412109375 11.80076599121094 7.058868408203125 C 11.64071655273438 7.289779663085938 11.45193481445312 7.499542236328125 11.23799133300781 7.68304443359375 C 11.02403259277344 7.866531372070312 10.78489685058594 8.023757934570312 10.52410888671875 8.149612426757812 C 10.52351379394531 8.14990234375 10.52290344238281 8.15020751953125 10.52229309082031 8.150497436523438 C 10.52168273925781 8.150787353515625 10.52108764648438 8.151092529296875 10.52046203613281 8.1513671875 C 10.51988220214844 8.151657104492188 10.51927185058594 8.1519775390625 10.51866149902344 8.15228271484375 C 10.51805114746094 8.152587890625 10.51747131347656 8.15289306640625 10.51686096191406 8.1531982421875 L 6.180404663085938 10.34849548339844 Z" stroke="none" fill="#000"/>
        </g>
        <g id="Caminho_1674-2" data-name="Caminho 1674" transform="translate(0 14.373)" stroke-linecap="round" stroke-linejoin="round" stroke-miterlimit="10">
          <path d="M.86,4.536a4.052,4.052,0,0,0,.19,1.524,3.9,3.9,0,0,0,.713,1.29A3.715,3.715,0,0,0,2.9,8.267a3.678,3.678,0,0,0,1.464.405l6.031.462a4.05,4.05,0,0,0,1.523-.19,3.9,3.9,0,0,0,1.29-.712,3.714,3.714,0,0,0,.917-1.137,3.673,3.673,0,0,0,.4-1.463,4.051,4.051,0,0,0-.19-1.524,3.9,3.9,0,0,0-.713-1.29,3.674,3.674,0,0,0-2.6-1.322L5,1.032a3.845,3.845,0,0,0-1.513.2,3.913,3.913,0,0,0-1.272.734A3.982,3.982,0,0,0,1.3,3.112,3.891,3.891,0,0,0,.86,4.536Z" stroke="none"/>
          <path d="M 0.43658447265625 4.491744995117188 C 0.4364471435546875 4.4931640625 0.436309814453125 4.49456787109375 0.4361572265625 4.495986938476562 C 0.43603515625 4.49737548828125 0.4358978271484375 4.498809814453125 0.4357757568359375 4.500213623046875 C 0.4356536865234375 4.501632690429688 0.435546875 4.503036499023438 0.4354248046875 4.50445556640625 C 0.4353179931640625 4.505874633789062 0.4352264404296875 4.507278442382812 0.4351348876953125 4.508682250976562 C 0.416534423828125 4.79534912109375 0.4247894287109375 5.0794677734375 0.458892822265625 5.35784912109375 C 0.493011474609375 5.636245727539062 0.552978515625 5.908905029296875 0.6377716064453125 6.172653198242188 C 0.7225494384765625 6.436431884765625 0.8321533203125 6.691314697265625 0.965576171875 6.93408203125 C 1.0989990234375 7.176849365234375 1.256179809570312 7.407546997070312 1.436187744140625 7.622955322265625 C 1.619354248046875 7.842178344726562 1.82110595703125 8.039321899414062 2.038467407226562 8.212890625 C 2.255844116210938 8.386428833007812 2.48883056640625 8.536392211914062 2.7344970703125 8.661270141601562 C 2.980148315429688 8.7861328125 3.238449096679688 8.885910034179688 3.506439208984375 8.959075927734375 C 3.774444580078125 9.032257080078125 4.0521240234375 9.078826904296875 4.336532592773438 9.0972900390625 L 10.36233520507812 9.558837890625 C 10.94572448730469 9.596710205078125 11.50883483886719 9.522689819335938 12.02897644042969 9.3553466796875 C 12.54914855957031 9.18798828125 13.02638244628906 8.92730712890625 13.43804931640625 8.591796875 C 13.8497314453125 8.25628662109375 14.19581604003906 7.845977783203125 14.45376586914062 7.379364013671875 C 14.71168518066406 6.912734985351562 14.88142395019531 6.389816284179688 14.94035339355469 5.829147338867188 C 14.94184875488281 5.815048217773438 14.94325256347656 5.800872802734375 14.94461059570312 5.78668212890625 C 14.94595336914062 5.772491455078125 14.94721984863281 5.75823974609375 14.94844055175781 5.743988037109375 C 14.94964599609375 5.729736328125 14.95079040527344 5.715484619140625 14.95185852050781 5.70123291015625 C 14.95291137695312 5.686965942382812 14.95390319824219 5.672714233398438 14.95480346679688 5.658493041992188 C 14.97341918945312 5.371902465820312 14.96514892578125 5.08782958984375 14.93104553222656 4.809478759765625 C 14.89691162109375 4.531112670898438 14.83694458007812 4.258468627929688 14.75215148925781 3.994705200195312 C 14.66737365722656 3.73095703125 14.55776977539062 3.476089477539062 14.42434692382812 3.233306884765625 C 14.29093933105469 2.99053955078125 14.13372802734375 2.759841918945312 13.95375061035156 2.54443359375 C 13.77070617675781 2.325363159179688 13.56912231445312 2.128372192382812 13.35194396972656 1.954910278320312 C 13.13475036621094 1.78143310546875 12.9019775390625 1.63153076171875 12.65655517578125 1.50665283203125 C 12.41110229492188 1.381805419921875 12.15304565429688 1.282012939453125 11.88529968261719 1.208786010742188 C 11.61756896972656 1.135543823242188 11.34013366699219 1.0888671875 11.05596923828125 1.07025146484375 L 5.02874755859375 0.6076507568359375 C 5.028335571289062 0.6076202392578125 5.027908325195312 0.607574462890625 5.027496337890625 0.6075439453125 C 5.027084350585938 0.607513427734375 5.02667236328125 0.60748291015625 5.0262451171875 0.607452392578125 C 5.025833129882812 0.6074371337890625 5.025421142578125 0.6074066162109375 5.024993896484375 0.6073760986328125 C 5.02459716796875 0.6073455810546875 5.024169921875 0.6073150634765625 5.02374267578125 0.6072845458984375 C 4.741287231445312 0.588958740234375 4.460845947265625 0.598297119140625 4.185562133789062 0.634246826171875 C 3.910293579101562 0.6702117919921875 3.640182495117188 0.732757568359375 3.378387451171875 0.8208770751953125 C 3.116607666015625 0.9089813232421875 2.8631591796875 1.02264404296875 2.621185302734375 1.160781860351562 C 2.37921142578125 1.298934936523438 2.148712158203125 1.461563110351562 1.932861328125 1.647613525390625 C 1.720596313476562 1.830535888671875 1.5281982421875 2.030899047851562 1.357177734375 2.245742797851562 C 1.186141967773438 2.460540771484375 1.0364990234375 2.689865112304688 0.9097900390625 2.930755615234375 C 0.7830657958984375 3.171646118164062 0.6792449951171875 3.424118041992188 0.5998687744140625 3.685256958007812 C 0.5204925537109375 3.946380615234375 0.465545654296875 4.2161865234375 0.43658447265625 4.491744995117188 Z M 14.093017578125 5.740081787109375 C 14.04609680175781 6.186630249023438 13.91011047363281 6.603042602539062 13.70333862304688 6.974563598632812 C 13.49656677246094 7.34613037109375 13.21897888183594 7.67279052734375 12.8887939453125 7.939849853515625 C 12.55860900878906 8.206924438476562 12.17584228515625 8.414382934570312 11.75869750976562 8.5474853515625 C 11.34158325195312 8.68060302734375 10.89007568359375 8.739349365234375 10.42245483398438 8.708984375 L 4.396652221679688 8.2474365234375 C 3.929092407226562 8.217086791992188 3.493209838867188 8.093490600585938 3.10430908203125 7.894851684570312 C 2.71539306640625 7.696197509765625 2.373428344726562 7.422515869140625 2.093765258789062 7.091995239257812 C 1.8140869140625 6.761459350585938 1.596633911132812 6.374114990234375 1.456710815429688 5.948104858398438 C 1.316787719726562 5.522125244140625 1.25439453125 5.057479858398438 1.2847900390625 4.572402954101562 C 1.334213256835938 4.11328125 1.474365234375 3.681640625 1.685455322265625 3.294326782226562 C 1.89654541015625 2.906997680664062 2.178558349609375 2.56396484375 2.511749267578125 2.282012939453125 C 2.844924926757812 2.00006103515625 3.229248046875 1.779159545898438 3.64495849609375 1.636138916015625 C 4.060653686523438 1.493087768554688 4.507675170898438 1.427902221679688 4.966293334960938 1.457366943359375 L 10.99320983886719 1.919952392578125 C 10.99363708496094 1.91998291015625 10.99404907226562 1.920013427734375 10.99446105957031 1.9200439453125 C 10.99488830566406 1.920074462890625 10.99530029296875 1.92010498046875 10.99569702148438 1.920120239257812 C 10.99612426757812 1.920166015625 10.99655151367188 1.920196533203125 10.99696350097656 1.92022705078125 C 10.99739074707031 1.920257568359375 10.997802734375 1.9202880859375 10.99819946289062 1.920318603515625 C 11.46522521972656 1.95062255859375 11.9007568359375 2.074462890625 12.28941345214844 2.273574829101562 C 12.67807006835938 2.472686767578125 13.01982116699219 2.747039794921875 13.29924011230469 3.078338623046875 C 13.57867431640625 3.40966796875 13.7957763671875 3.797943115234375 13.93513488769531 4.22491455078125 C 14.07450866699219 4.651870727539062 14.13612365722656 5.11749267578125 14.10458374023438 5.603515625 C 14.10383605957031 5.615036010742188 14.10304260253906 5.626510620117188 14.10220336914062 5.637954711914062 C 14.10134887695312 5.649368286132812 14.10041809082031 5.660751342773438 14.09945678710938 5.672119140625 C 14.0985107421875 5.683486938476562 14.09748840332031 5.69482421875 14.09640502929688 5.706146240234375 C 14.0953369140625 5.71746826171875 14.09420776367188 5.728775024414062 14.093017578125 5.740081787109375 Z" stroke="none" fill="#000"/>
        </g>
        <g id="Caminho_1675-2" data-name="Caminho 1675" transform="translate(0.504 7.92)" stroke-linecap="round" stroke-linejoin="round" stroke-miterlimit="10">
          <path d="M.864,4.537a4.051,4.051,0,0,0,.19,1.524,3.9,3.9,0,0,0,.713,1.29,3.674,3.674,0,0,0,2.6,1.322l6.03.463a4.051,4.051,0,0,0,1.524-.19,3.9,3.9,0,0,0,1.29-.713A3.715,3.715,0,0,0,14.128,7.1a3.678,3.678,0,0,0,.405-1.464,4.052,4.052,0,0,0-.19-1.524,3.9,3.9,0,0,0-.713-1.29A3.716,3.716,0,0,0,12.493,1.9,3.678,3.678,0,0,0,11.029,1.5L5,1.033a4.054,4.054,0,0,0-1.524.191,3.906,3.906,0,0,0-1.29.713,3.714,3.714,0,0,0-.917,1.137,3.674,3.674,0,0,0-.4,1.463Z" stroke="none"/>
          <path d="M 0.453094482421875 4.338455200195312 C 0.4516143798828125 4.352554321289062 0.4501953125 4.366729736328125 0.4488372802734375 4.380935668945312 C 0.447509765625 4.3951416015625 0.44622802734375 4.409408569335938 0.44500732421875 4.423675537109375 C 0.4438018798828125 4.437942504882812 0.4426727294921875 4.45220947265625 0.44158935546875 4.466445922851562 C 0.4405517578125 4.480712890625 0.4395599365234375 4.494964599609375 0.4386444091796875 4.509185791015625 C 0.4200439453125 4.7957763671875 0.428314208984375 5.079849243164062 0.462432861328125 5.35821533203125 C 0.496551513671875 5.636566162109375 0.5565032958984375 5.909225463867188 0.64129638671875 6.172988891601562 C 0.7260894775390625 6.436737060546875 0.835693359375 6.69158935546875 0.9691162109375 6.934371948242188 C 1.102523803710938 7.177139282226562 1.259719848632812 7.4078369140625 1.439712524414062 7.623260498046875 C 1.622756958007812 7.842315673828125 1.8243408203125 8.039321899414062 2.041534423828125 8.212783813476562 C 2.25872802734375 8.386245727539062 2.491500854492188 8.536148071289062 2.736907958984375 8.6610107421875 C 2.982330322265625 8.785888671875 3.240386962890625 8.885665893554688 3.508148193359375 8.958908081054688 C 3.775909423828125 9.032135009765625 4.053329467773438 9.078811645507812 4.337509155273438 9.097412109375 L 10.36470031738281 9.560028076171875 C 10.3651123046875 9.56005859375 10.36553955078125 9.560104370117188 10.36595153808594 9.560134887695312 C 10.36637878417969 9.560165405273438 10.36680603027344 9.5601806640625 10.36720275878906 9.560211181640625 C 10.36761474609375 9.56024169921875 10.3680419921875 9.560272216796875 10.36846923828125 9.560302734375 C 10.36888122558594 9.560333251953125 10.36929321289062 9.56036376953125 10.36970520019531 9.560394287109375 C 10.95199584960938 9.598190307617188 11.5142822265625 9.5240478515625 12.03388977050781 9.356536865234375 C 12.55348205566406 9.18902587890625 13.03036499023438 8.928131103515625 13.44183349609375 8.592376708984375 C 13.85330200195312 8.256622314453125 14.1993408203125 7.846023559570312 14.457275390625 7.37908935546875 C 14.7152099609375 6.91217041015625 14.885009765625 6.388916015625 14.94398498535156 5.827880859375 C 14.94544982910156 5.813919067382812 14.94685363769531 5.799896240234375 14.94818115234375 5.785842895507812 C 14.94950866699219 5.77178955078125 14.95079040527344 5.757705688476562 14.95199584960938 5.74359130859375 C 14.95318603515625 5.729476928710938 14.95431518554688 5.715362548828125 14.95536804199219 5.701263427734375 C 14.9564208984375 5.687149047851562 14.9573974609375 5.673049926757812 14.95832824707031 5.658981323242188 C 14.9769287109375 5.372329711914062 14.96865844726562 5.088226318359375 14.93453979492188 4.809829711914062 C 14.90043640136719 4.531448364257812 14.84046936035156 4.258773803710938 14.75569152832031 3.995025634765625 C 14.6708984375 3.731246948242188 14.56129455566406 3.47637939453125 14.42788696289062 3.233612060546875 C 14.29447937011719 2.990829467773438 14.13725280761719 2.760147094726562 13.957275390625 2.544723510742188 C 13.77423095703125 2.325668334960938 13.57264709472656 2.128646850585938 13.35543823242188 1.955184936523438 C 13.13825988769531 1.781707763671875 12.90545654296875 1.631805419921875 12.6600341796875 1.5069580078125 C 12.41461181640625 1.382110595703125 12.15653991699219 1.282318115234375 11.88876342773438 1.209091186523438 C 11.62103271484375 1.135848999023438 11.34358215332031 1.089157104492188 11.05941772460938 1.070556640625 L 5.031265258789062 0.6078338623046875 C 5.030853271484375 0.6078033447265625 5.030410766601562 0.6077728271484375 5.02996826171875 0.6077423095703125 C 5.029541015625 0.6077117919921875 5.02911376953125 0.6076812744140625 5.028656005859375 0.6076507568359375 C 5.028228759765625 0.6076202392578125 5.027801513671875 0.6075897216796875 5.027374267578125 0.6075592041015625 C 5.026931762695312 0.6075286865234375 5.0264892578125 0.6074981689453125 5.02606201171875 0.6074676513671875 C 4.443923950195312 0.5699615478515625 3.881759643554688 0.644256591796875 3.362289428710938 0.81182861328125 C 2.84283447265625 0.979400634765625 2.366058349609375 1.240249633789062 1.954727172851562 1.575851440429688 C 1.543380737304688 1.911468505859375 1.197433471679688 2.321853637695312 0.9395904541015625 2.7884521484375 C 0.681732177734375 3.25506591796875 0.5120086669921875 3.777908325195312 0.453094482421875 4.338455200195312 Z M 10.42718505859375 8.7103271484375 L 4.400253295898438 8.24774169921875 C 4.399826049804688 8.247711181640625 4.3994140625 8.2476806640625 4.399017333984375 8.247650146484375 C 4.398574829101562 8.24761962890625 4.398162841796875 8.247589111328125 4.397750854492188 8.24755859375 C 4.397323608398438 8.247528076171875 4.39691162109375 8.24749755859375 4.396499633789062 8.247467041015625 C 4.396087646484375 8.2474365234375 4.395660400390625 8.247406005859375 4.395248413085938 8.24737548828125 C 3.92822265625 8.217056274414062 3.49267578125 8.093215942382812 3.104034423828125 7.89410400390625 C 2.71539306640625 7.694992065429688 2.3736572265625 7.420639038085938 2.094223022460938 7.089324951171875 C 1.814788818359375 6.758026123046875 1.597686767578125 6.369720458984375 1.458328247070312 5.942764282226562 C 1.3189697265625 5.515823364257812 1.257339477539062 5.050201416015625 1.28887939453125 4.564163208007812 C 1.28961181640625 4.5526123046875 1.290420532226562 4.5411376953125 1.291259765625 4.529678344726562 C 1.2921142578125 4.518234252929688 1.293014526367188 4.506820678710938 1.293975830078125 4.495437622070312 C 1.294952392578125 4.48406982421875 1.29595947265625 4.47271728515625 1.297027587890625 4.461410522460938 C 1.298095703125 4.450088500976562 1.299240112304688 4.438796997070312 1.300430297851562 4.427505493164062 C 1.347335815429688 3.981231689453125 1.48321533203125 3.565017700195312 1.689834594726562 3.193603515625 C 1.896484375 2.822174072265625 2.173858642578125 2.495529174804688 2.503814697265625 2.228378295898438 C 2.833755493164062 1.961257934570312 3.216278076171875 1.753616333007812 3.633163452148438 1.6202392578125 C 4.050048828125 1.48687744140625 4.501296997070312 1.427719116210938 4.968719482421875 1.457550048828125 L 10.99673461914062 1.920257568359375 C 10.99714660644531 1.920272827148438 10.99757385253906 1.920318603515625 10.99800109863281 1.92034912109375 C 10.9984130859375 1.920379638671875 10.99882507324219 1.92041015625 10.99923706054688 1.920440673828125 C 10.99964904785156 1.92047119140625 11.00006103515625 1.920486450195312 11.00048828125 1.920516967773438 C 11.00091552734375 1.920547485351562 11.00132751464844 1.920578002929688 11.00173950195312 1.920608520507812 C 11.46876525878906 1.950897216796875 11.904296875 2.074752807617188 12.29293823242188 2.27386474609375 C 12.68156433105469 2.472976684570312 13.02333068847656 2.747314453125 13.30274963378906 3.078643798828125 C 13.58218383789062 3.409942626953125 13.79928588867188 3.798233032226562 13.93865966796875 4.225189208984375 C 14.07804870605469 4.652145385742188 14.13966369628906 5.1177978515625 14.10810852050781 5.60382080078125 C 14.10737609863281 5.61517333984375 14.10659790039062 5.626495361328125 14.10575866699219 5.637771606445312 C 14.10490417480469 5.649063110351562 14.10400390625 5.660324096679688 14.10304260253906 5.671539306640625 C 14.10208129882812 5.682785034179688 14.10107421875 5.694000244140625 14.10000610351562 5.7052001953125 C 14.09895324707031 5.716415405273438 14.09782409667969 5.727615356445312 14.09664916992188 5.738815307617188 C 14.04969787597656 6.185516357421875 13.91375732421875 6.602096557617188 13.70704650878906 6.973831176757812 C 13.50032043457031 7.345565795898438 13.22283935546875 7.67242431640625 12.89276123046875 7.939697265625 C 12.56268310546875 8.20697021484375 12.1800537109375 8.414642333984375 11.76304626464844 8.547988891601562 C 11.34603881835938 8.681350708007812 10.89468383789062 8.740371704101562 10.42718505859375 8.7103271484375 Z" stroke="none" fill="#000"/>
        </g>
        <path id="Caminho_1676-2" data-name="Caminho 1676" d="M7.25.677,4.531.477a4.051,4.051,0,0,0-1.524.19,3.9,3.9,0,0,0-1.29.713,3.674,3.674,0,0,0-1.322,2.6A4.05,4.05,0,0,0,.585,5.5,3.9,3.9,0,0,0,1.3,6.794a3.716,3.716,0,0,0,1.137.917A3.679,3.679,0,0,0,3.9,8.116l2.8.209" transform="translate(1.444 2.359)"/>
        <g id="Caminho_1677-2" data-name="Caminho 1677" transform="translate(0.975 1.877)" fill="none" stroke-linecap="round" stroke-linejoin="round" stroke-miterlimit="10">
          <path d="M7.719,1.158,5,.959a4.051,4.051,0,0,0-1.524.19,3.9,3.9,0,0,0-1.29.713,3.674,3.674,0,0,0-1.322,2.6,4.05,4.05,0,0,0,.19,1.523,3.9,3.9,0,0,0,.713,1.289A3.716,3.716,0,0,0,2.9,8.192,3.679,3.679,0,0,0,4.368,8.6l2.8.209" stroke="none"/>
          <path d="M 0.452880859375 4.26605224609375 C 0.4514007568359375 4.280075073242188 0.449981689453125 4.29412841796875 0.4486541748046875 4.30816650390625 C 0.4473114013671875 4.322235107421875 0.446044921875 4.336318969726562 0.444854736328125 4.35040283203125 C 0.44366455078125 4.364501953125 0.442535400390625 4.37860107421875 0.44146728515625 4.392730712890625 C 0.4404144287109375 4.406875610351562 0.439422607421875 4.4210205078125 0.438507080078125 4.4351806640625 C 0.419921875 4.721725463867188 0.4282073974609375 5.005752563476562 0.462310791015625 5.284027099609375 C 0.496429443359375 5.562347412109375 0.5564117431640625 5.834930419921875 0.641204833984375 6.098617553710938 C 0.72601318359375 6.362319946289062 0.83563232421875 6.61712646484375 0.9690399169921875 6.85986328125 C 1.102462768554688 7.102584838867188 1.259674072265625 7.333221435546875 1.439682006835938 7.548614501953125 C 1.62286376953125 7.767791748046875 1.824630737304688 7.964920043945312 2.042007446289062 8.13848876953125 C 2.2593994140625 8.31201171875 2.492385864257812 8.461944580078125 2.738021850585938 8.586822509765625 C 2.983673095703125 8.711669921875 3.241973876953125 8.811447143554688 3.509963989257812 8.884597778320312 C 3.7779541015625 8.957763671875 4.05560302734375 9.00433349609375 4.340011596679688 9.022796630859375 L 7.139404296875 9.231689453125 C 7.19696044921875 9.2359619140625 7.252700805664062 9.228622436523438 7.304306030273438 9.21160888671875 C 7.355926513671875 9.194610595703125 7.403396606445312 9.167938232421875 7.444427490234375 9.133621215820312 C 7.485443115234375 9.09930419921875 7.520034790039062 9.05731201171875 7.545852661132812 9.0096435546875 C 7.571685791015625 8.961990356445312 7.5887451171875 8.908660888671875 7.594741821289062 8.851638793945312 C 7.5948486328125 8.850555419921875 7.594970703125 8.849472045898438 7.595077514648438 8.848388671875 C 7.595184326171875 8.847305297851562 7.59527587890625 8.846206665039062 7.595367431640625 8.845138549804688 C 7.595458984375 8.84405517578125 7.595550537109375 8.84295654296875 7.59564208984375 8.84185791015625 C 7.595733642578125 8.84075927734375 7.5958251953125 8.839675903320312 7.595916748046875 8.838577270507812 C 7.60028076171875 8.7799072265625 7.592575073242188 8.72314453125 7.574859619140625 8.67071533203125 C 7.557174682617188 8.6182861328125 7.529464721679688 8.570205688476562 7.493911743164062 8.528900146484375 C 7.458343505859375 8.487579345703125 7.414886474609375 8.45306396484375 7.36566162109375 8.427780151367188 C 7.316436767578125 8.402496337890625 7.261444091796875 8.386428833007812 7.202789306640625 8.382049560546875 L 4.399307250976562 8.172866821289062 C 3.9312744140625 8.142486572265625 3.494964599609375 8.01861572265625 3.105728149414062 7.819503784179688 C 2.71649169921875 7.62042236328125 2.374374389648438 7.346115112304688 2.09466552734375 7.014877319335938 C 1.814971923828125 6.683609008789062 1.597747802734375 6.295440673828125 1.458282470703125 5.86859130859375 C 1.318832397460938 5.441757202148438 1.2572021484375 4.976242065429688 1.288726806640625 4.4903564453125 C 1.289459228515625 4.47894287109375 1.290252685546875 4.467544555664062 1.291122436523438 4.4561767578125 C 1.291976928710938 4.444808959960938 1.292877197265625 4.433456420898438 1.293838500976562 4.422103881835938 C 1.2947998046875 4.4107666015625 1.295806884765625 4.399444580078125 1.296890258789062 4.388168334960938 C 1.297958374023438 4.376861572265625 1.299102783203125 4.365570068359375 1.300277709960938 4.354339599609375 C 1.347518920898438 3.90484619140625 1.482086181640625 3.486770629882812 1.686981201171875 3.114410400390625 C 1.891891479492188 2.7420654296875 2.1671142578125 2.4154052734375 2.4957275390625 2.148788452148438 C 2.824325561523438 1.882171630859375 3.206314086914062 1.675582885742188 3.624664306640625 1.5433349609375 C 4.04302978515625 1.411102294921875 4.497787475585938 1.35321044921875 4.971939086914062 1.383987426757812 L 7.687454223632812 1.58306884765625 C 7.744964599609375 1.587295532226562 7.8006591796875 1.579864501953125 7.852203369140625 1.56280517578125 C 7.90374755859375 1.545761108398438 7.951171875 1.519088745117188 7.992141723632812 1.484756469726562 C 8.033111572265625 1.450424194335938 8.067657470703125 1.408462524414062 8.093429565429688 1.36083984375 C 8.119216918945312 1.313201904296875 8.136260986328125 1.259918212890625 8.142242431640625 1.202972412109375 C 8.142364501953125 1.20184326171875 8.142486572265625 1.200714111328125 8.142608642578125 1.199569702148438 C 8.1427001953125 1.198440551757812 8.142807006835938 1.197311401367188 8.142898559570312 1.1961669921875 C 8.14300537109375 1.195037841796875 8.143112182617188 1.193893432617188 8.1431884765625 1.1927490234375 C 8.143280029296875 1.191619873046875 8.14337158203125 1.190475463867188 8.143463134765625 1.189346313476562 C 8.14776611328125 1.13067626953125 8.139968872070312 1.07391357421875 8.1221923828125 1.021514892578125 C 8.104400634765625 0.9691162109375 8.07666015625 0.921051025390625 8.041030883789062 0.879791259765625 C 8.005416870117188 0.838531494140625 7.961929321289062 0.8040618896484375 7.912673950195312 0.77886962890625 C 7.8634033203125 0.753631591796875 7.808395385742188 0.737640380859375 7.749725341796875 0.7333526611328125 L 5.030670166015625 0.5340423583984375 C 4.743133544921875 0.5153656005859375 4.4583740234375 0.523590087890625 4.179473876953125 0.5576629638671875 C 3.90057373046875 0.5917510986328125 3.627578735351562 0.6516876220703125 3.363601684570312 0.7364501953125 C 3.099594116210938 0.8212127685546875 2.844619750976562 0.9308013916015625 2.601776123046875 1.064224243164062 C 2.35894775390625 1.197647094726562 2.128280639648438 1.354843139648438 1.912857055664062 1.534835815429688 C 1.704559326171875 1.708892822265625 1.516189575195312 1.899703979492188 1.349044799804688 2.104766845703125 C 1.181900024414062 2.309829711914062 1.035980224609375 2.529144287109375 0.91259765625 2.7601318359375 C 0.7891845703125 2.991119384765625 0.6883392333984375 3.233810424804688 0.6112823486328125 3.48565673828125 C 0.53424072265625 3.737472534179688 0.4810028076171875 3.998458862304688 0.452880859375 4.26605224609375 Z" stroke="none" fill="#000"/>
        </g>
        <g id="Caminho_1678-2" data-name="Caminho 1678" transform="translate(2.519 21.524)" fill="#ffc7de" stroke-linecap="round" stroke-linejoin="round" stroke-miterlimit="10">
          <path d="M1.222,9.076a3.7,3.7,0,0,0,.92,1.2A3.812,3.812,0,0,0,3.418,11a3.893,3.893,0,0,0,2.931-.184l4.6-2.256a3.7,3.7,0,0,0,1.2-.92,3.81,3.81,0,0,0,.723-1.275,3.892,3.892,0,0,0-.184-2.93,3.7,3.7,0,0,0-.92-1.2,3.812,3.812,0,0,0-1.276-.723,3.893,3.893,0,0,0-2.931.184L2.96,3.949A3.78,3.78,0,0,0,1.8,4.873,4,4,0,0,0,1.07,6.148,3.938,3.938,0,0,0,.854,7.606a3.742,3.742,0,0,0,.369,1.47Z" stroke="none"/>
          <path d="M 0.4479217529296875 6.990982055664062 C 0.42730712890625 7.187103271484375 0.420318603515625 7.38323974609375 0.426666259765625 7.578079223632812 C 0.433013916015625 7.77294921875 0.4527435302734375 7.96649169921875 0.4856109619140625 8.157440185546875 C 0.5184783935546875 8.348358154296875 0.5644989013671875 8.53668212890625 0.6234130859375 8.721023559570312 C 0.682342529296875 8.9053955078125 0.754180908203125 9.085800170898438 0.838714599609375 9.260940551757812 C 1.091476440429688 9.78472900390625 1.44073486328125 10.23182678222656 1.855728149414062 10.59181213378906 C 2.270721435546875 10.9517822265625 2.751419067382812 11.22463989257812 3.267044067382812 11.39991760253906 C 3.782684326171875 11.57518005371094 4.333251953125 11.65286254882812 4.88800048828125 11.62251281738281 C 5.4427490234375 11.59213256835938 6.001693725585938 11.45375061035156 6.534011840820312 11.19683837890625 L 11.139404296875 8.939483642578125 C 11.46662902832031 8.78167724609375 11.76679992675781 8.584625244140625 12.03536987304688 8.354782104492188 C 12.303955078125 8.12493896484375 12.54095458984375 7.8623046875 12.74189758300781 7.573272705078125 C 12.94285583496094 7.28424072265625 13.10774230957031 6.96881103515625 13.23208618164062 6.633392333984375 C 13.3564453125 6.297988891601562 13.44024658203125 5.942611694335938 13.47903442382812 5.57366943359375 C 13.50003051757812 5.373870849609375 13.50701904296875 5.173736572265625 13.50022888183594 4.974594116210938 C 13.49345397949219 4.77545166015625 13.47291564941406 4.577346801757812 13.43881225585938 4.381591796875 C 13.40473937988281 4.185836791992188 13.35711669921875 3.992477416992188 13.29620361328125 3.802810668945312 C 13.23530578613281 3.6131591796875 13.16110229492188 3.42724609375 13.07382202148438 3.246414184570312 C 12.821044921875 2.72265625 12.47177124023438 2.275558471679688 12.05679321289062 1.915573120117188 C 11.64183044433594 1.55560302734375 11.1611328125 1.282760620117188 10.64549255371094 1.107467651367188 C 10.12986755371094 0.9322052001953125 9.579269409179688 0.854522705078125 9.024505615234375 0.8848876953125 C 8.469757080078125 0.915252685546875 7.910842895507812 1.05364990234375 7.378524780273438 1.310546875 L 2.772354125976562 3.566741943359375 C 2.771835327148438 3.566986083984375 2.771331787109375 3.567245483398438 2.770828247070312 3.5675048828125 C 2.770309448242188 3.5677490234375 2.769790649414062 3.568008422851562 2.769271850585938 3.568267822265625 C 2.76873779296875 3.568511962890625 2.768218994140625 3.56878662109375 2.767715454101562 3.569046020507812 C 2.767196655273438 3.569290161132812 2.766677856445312 3.569549560546875 2.76617431640625 3.56982421875 C 2.447021484375 3.732620239257812 2.15216064453125 3.9366455078125 1.886947631835938 4.17388916015625 C 1.621749877929688 4.411163330078125 1.386245727539062 4.681671142578125 1.185836791992188 4.9774169921875 C 0.9854278564453125 5.273193359375 0.82012939453125 5.59417724609375 0.6953277587890625 5.93243408203125 C 0.5705413818359375 6.270675659179688 0.48626708984375 6.626205444335938 0.4479217529296875 6.990982055664062 Z M 12.63169860839844 5.484603881835938 C 12.60069274902344 5.779647827148438 12.53385925292969 6.063751220703125 12.43473815917969 6.331817626953125 C 12.33564758300781 6.599868774414062 12.20425415039062 6.851882934570312 12.04414367675781 7.082763671875 C 11.88401794433594 7.313629150390625 11.69515991210938 7.523345947265625 11.48109436035156 7.706787109375 C 11.26704406738281 7.890228271484375 11.02775573730469 8.04742431640625 10.766845703125 8.17327880859375 L 6.161346435546875 10.4306640625 C 5.73541259765625 10.63624572753906 5.28814697265625 10.74726867675781 4.844253540039062 10.77207946777344 C 4.400360107421875 10.79684448242188 3.959854125976562 10.73538208007812 3.54736328125 10.59600830078125 C 3.134857177734375 10.45661926269531 2.750381469726562 10.23927307128906 2.418624877929688 9.952285766601562 C 2.08685302734375 9.665283203125 1.807769775390625 9.30865478515625 1.606033325195312 8.890655517578125 C 1.538726806640625 8.751220703125 1.481536865234375 8.607498168945312 1.43463134765625 8.460586547851562 C 1.387741088867188 8.313674926757812 1.351119995117188 8.163528442382812 1.324981689453125 8.011199951171875 C 1.298843383789062 7.858917236328125 1.283172607421875 7.7044677734375 1.278152465820312 7.548919677734375 C 1.27313232421875 7.39337158203125 1.278793334960938 7.236724853515625 1.295257568359375 7.080032348632812 C 1.32611083984375 6.786483764648438 1.3936767578125 6.50048828125 1.493621826171875 6.22845458984375 C 1.593536376953125 5.956436157226562 1.725845336914062 5.6983642578125 1.886184692382812 5.460693359375 C 2.046554565429688 5.223007202148438 2.234954833984375 5.005706787109375 2.447052001953125 4.815170288085938 C 2.659164428710938 4.624649047851562 2.894973754882812 4.460922241210938 3.150177001953125 4.330398559570312 L 7.751068115234375 2.076766967773438 C 8.17706298828125 1.871185302734375 8.62432861328125 1.760147094726562 9.0682373046875 1.7353515625 C 9.512130737304688 1.710556030273438 9.952682495117188 1.772003173828125 10.36517333984375 1.911376953125 C 10.77767944335938 2.050765991210938 11.16213989257812 2.268112182617188 11.49392700195312 2.555099487304688 C 11.82571411132812 2.84210205078125 12.10479736328125 3.198745727539062 12.3065185546875 3.616729736328125 C 12.37655639648438 3.761856079101562 12.43611145019531 3.91107177734375 12.48500061035156 4.06329345703125 C 12.53387451171875 4.215499877929688 12.57208251953125 4.370697021484375 12.59942626953125 4.527801513671875 C 12.62680053710938 4.684906005859375 12.64329528808594 4.84393310546875 12.64872741699219 5.003753662109375 C 12.65415954589844 5.16357421875 12.6485595703125 5.324234008789062 12.63169860839844 5.484603881835938 Z" stroke="none" fill="#000"/>
        </g>
        <g id="Caminho_1679-2" data-name="Caminho 1679" transform="translate(1.337 15.034)" fill="#ffc7de" stroke-linecap="round" stroke-linejoin="round" stroke-miterlimit="10">
          <path d="M.861,5.813A3.836,3.836,0,0,0,1.245,7.3a3.728,3.728,0,0,0,.891,1.163A3.814,3.814,0,0,0,3.407,9.2a4.01,4.01,0,0,0,1.528.21l5.424-.286a3.836,3.836,0,0,0,1.487-.383,3.73,3.73,0,0,0,1.163-.891,3.816,3.816,0,0,0,.737-1.272,4.008,4.008,0,0,0,.21-1.528,3.837,3.837,0,0,0-.383-1.487A3.728,3.728,0,0,0,12.682,2.4a3.815,3.815,0,0,0-1.272-.737,4.01,4.01,0,0,0-1.528-.21L4.458,1.74a3.774,3.774,0,0,0-1.451.386A3.873,3.873,0,0,0,.861,5.813Z" stroke="none"/>
          <path d="M 0.4533538818359375 5.143951416015625 C 0.447357177734375 5.20098876953125 0.4425048828125 5.258316040039062 0.4387969970703125 5.315826416015625 C 0.43505859375 5.37335205078125 0.4324798583984375 5.431076049804688 0.4310302734375 5.488876342773438 C 0.429595947265625 5.54669189453125 0.429290771484375 5.6046142578125 0.4301300048828125 5.662521362304688 C 0.4309844970703125 5.720428466796875 0.432952880859375 5.778350830078125 0.4361114501953125 5.836151123046875 C 0.468231201171875 6.429351806640625 0.616485595703125 6.9840087890625 0.858428955078125 7.480316162109375 C 1.100372314453125 7.97662353515625 1.436004638671875 8.414566040039062 1.842819213867188 8.774276733398438 C 2.249664306640625 9.133987426757812 2.727737426757812 9.41546630859375 3.254562377929688 9.598892211914062 C 3.781387329101562 9.782302856445312 4.356979370117188 9.867630004882812 4.958892822265625 9.835052490234375 L 10.3818359375 9.549453735351562 C 10.63883972167969 9.5355224609375 10.89186096191406 9.4990234375 11.13812255859375 9.44110107421875 C 11.38441467285156 9.3831787109375 11.62391662597656 9.303878784179688 11.85391235351562 9.204376220703125 C 12.08387756347656 9.1048583984375 12.30436706542969 8.985153198242188 12.51254272460938 8.846466064453125 C 12.72073364257812 8.707763671875 12.91661071777344 8.550079345703125 13.09745788574219 8.37457275390625 C 13.27517700195312 8.202117919921875 13.43655395507812 8.014434814453125 13.580322265625 7.814224243164062 C 13.72410583496094 7.614013671875 13.85023498535156 7.40130615234375 13.95747375488281 7.1787109375 C 14.06471252441406 6.956130981445312 14.15301513671875 6.723678588867188 14.22113037109375 6.484100341796875 C 14.28924560546875 6.2445068359375 14.337158203125 5.997756958007812 14.36355590820312 5.746536254882812 C 14.36978149414062 5.68731689453125 14.37484741210938 5.627792358398438 14.37870788574219 5.5679931640625 C 14.38253784179688 5.50823974609375 14.38522338867188 5.448211669921875 14.38670349121094 5.388092041015625 C 14.38819885253906 5.327957153320312 14.38848876953125 5.2677001953125 14.38761901855469 5.207412719726562 C 14.38673400878906 5.147125244140625 14.38465881347656 5.086822509765625 14.38139343261719 5.026611328125 C 14.34927368164062 4.433395385742188 14.20100402832031 3.878738403320312 13.95906066894531 3.382431030273438 C 13.71711730957031 2.886138916015625 13.38150024414062 2.44818115234375 12.97467041015625 2.088470458984375 C 12.56782531738281 1.728759765625 12.08975219726562 1.447280883789062 11.56292724609375 1.26385498046875 C 11.03610229492188 1.0804443359375 10.46051025390625 0.9951171875 9.858612060546875 1.027694702148438 L 4.435470581054688 1.314300537109375 C 4.184188842773438 1.329421997070312 3.93609619140625 1.367080688476562 3.69390869140625 1.426055908203125 C 3.451705932617188 1.48504638671875 3.215408325195312 1.565383911132812 2.987701416015625 1.665802001953125 C 2.759994506835938 1.766220092773438 2.540878295898438 1.886764526367188 2.333053588867188 2.026229858398438 C 2.125228881835938 2.165679931640625 1.928695678710938 2.32403564453125 1.746139526367188 2.5001220703125 C 1.564071655273438 2.675704956054688 1.398818969726562 2.866073608398438 1.251724243164062 3.06854248046875 C 1.104629516601562 3.271011352539062 0.975677490234375 3.485549926757812 0.866180419921875 3.70947265625 C 0.756683349609375 3.93341064453125 0.666656494140625 4.166702270507812 0.597412109375 4.406692504882812 C 0.528167724609375 4.64666748046875 0.479705810546875 4.893325805664062 0.4533538818359375 5.143951416015625 Z M 13.51622009277344 5.657470703125 C 13.47158813476562 6.082199096679688 13.35638427734375 6.478912353515625 13.18222045898438 6.83648681640625 C 13.008056640625 7.194061279296875 12.77493286132812 7.51251220703125 12.49446105957031 7.78076171875 C 12.21400451660156 8.048980712890625 11.88618469238281 8.266998291015625 11.52262878417969 8.423690795898438 C 11.15907287597656 8.580352783203125 10.75979614257812 8.67572021484375 10.33636474609375 8.698654174804688 L 4.9134521484375 8.984268188476562 C 4.430633544921875 9.010406494140625 3.969009399414062 8.942337036132812 3.546493530273438 8.795867919921875 C 3.123992919921875 8.649429321289062 2.740646362304688 8.424606323242188 2.414443969726562 8.137283325195312 C 2.088241577148438 7.849945068359375 1.819168090820312 7.500091552734375 1.625244140625 7.103591918945312 C 1.431320190429688 6.707122802734375 1.312530517578125 6.26397705078125 1.286865234375 5.7900390625 C 1.284347534179688 5.74346923828125 1.282745361328125 5.69683837890625 1.282073974609375 5.650177001953125 C 1.281387329101562 5.60357666015625 1.2816162109375 5.556961059570312 1.282760620117188 5.510421752929688 C 1.283905029296875 5.463912963867188 1.285980224609375 5.417495727539062 1.288970947265625 5.371231079101562 C 1.291946411132812 5.324981689453125 1.295867919921875 5.278900146484375 1.300689697265625 5.233062744140625 C 1.344070434570312 4.820465087890625 1.462127685546875 4.4285888671875 1.640457153320312 4.071319580078125 C 1.81878662109375 3.714035034179688 2.057373046875 3.391342163085938 2.341827392578125 3.117156982421875 C 2.62628173828125 2.842941284179688 2.95660400390625 2.61724853515625 3.318344116210938 2.453933715820312 C 3.680099487304688 2.29058837890625 4.073333740234375 2.18963623046875 4.483551025390625 2.164947509765625 L 9.904144287109375 1.878494262695312 C 10.38690185546875 1.852340698242188 10.84854125976562 1.920425415039062 11.27104187011719 2.066879272460938 C 11.69351196289062 2.21331787109375 12.07685852050781 2.438140869140625 12.403076171875 2.7254638671875 C 12.72926330566406 3.012802124023438 12.99832153320312 3.362655639648438 13.19224548339844 3.7591552734375 C 13.38618469238281 4.155624389648438 13.50497436523438 4.598785400390625 13.5306396484375 5.072708129882812 C 13.53329467773438 5.1217041015625 13.53498840332031 5.170745849609375 13.53572082519531 5.2197265625 C 13.53643798828125 5.268753051757812 13.53619384765625 5.317703247070312 13.53498840332031 5.366561889648438 C 13.53378295898438 5.4154052734375 13.5316162109375 5.464126586914062 13.52848815917969 5.51263427734375 C 13.52537536621094 5.561172485351562 13.52127075195312 5.609451293945312 13.51622009277344 5.657470703125 Z" stroke="none" fill="#000"/>
        </g>
        <g id="Caminho_1680-2" data-name="Caminho 1680" transform="translate(1.819 9.256)" fill="#ffc7de" stroke-linecap="round" stroke-linejoin="round" stroke-miterlimit="10">
          <path d="M.864,4.537a4.052,4.052,0,0,0,.19,1.524,3.9,3.9,0,0,0,.713,1.29A3.715,3.715,0,0,0,2.9,8.267a3.678,3.678,0,0,0,1.464.405l5.437.4a4.052,4.052,0,0,0,1.524-.19,3.9,3.9,0,0,0,1.29-.713,3.673,3.673,0,0,0,1.322-2.6,4.052,4.052,0,0,0-.19-1.524,3.9,3.9,0,0,0-.713-1.29A3.713,3.713,0,0,0,11.9,1.838a3.676,3.676,0,0,0-1.464-.4L5,1.033a3.709,3.709,0,0,0-1.52.155A3.772,3.772,0,0,0,.864,4.537Z" stroke="none"/>
          <path d="M 0.4529571533203125 4.340087890625 C 0.4514923095703125 4.354080200195312 0.4500885009765625 4.368133544921875 0.4487457275390625 4.3822021484375 C 0.4474029541015625 4.396270751953125 0.446136474609375 4.410385131835938 0.4449462890625 4.42449951171875 C 0.443756103515625 4.438613891601562 0.442626953125 4.452743530273438 0.441558837890625 4.466842651367188 C 0.44049072265625 4.48095703125 0.43951416015625 4.495040893554688 0.4385986328125 4.509109497070312 C 0.4199981689453125 4.7957763671875 0.428253173828125 5.079879760742188 0.4623870849609375 5.3582763671875 C 0.496490478515625 5.636672973632812 0.5564422607421875 5.909347534179688 0.6412200927734375 6.173095703125 C 0.72601318359375 6.436874389648438 0.8356170654296875 6.691741943359375 0.9690399169921875 6.934524536132812 C 1.102447509765625 7.177276611328125 1.259658813476562 7.407989501953125 1.439651489257812 7.6234130859375 C 1.622802734375 7.842636108398438 1.824569702148438 8.039794921875 2.041946411132812 8.213348388671875 C 2.259307861328125 8.386886596679688 2.492324829101562 8.536849975585938 2.73797607421875 8.661727905273438 C 2.983627319335938 8.786590576171875 3.241928100585938 8.886383056640625 3.509902954101562 8.95953369140625 C 3.777908325195312 9.03271484375 4.055572509765625 9.07928466796875 4.339996337890625 9.097747802734375 L 9.773406982421875 9.49700927734375 C 10.35658264160156 9.534866333007812 10.9195556640625 9.460784912109375 11.43966674804688 9.293304443359375 C 11.95974731445312 9.125823974609375 12.43698120117188 8.864944458007812 12.84867858886719 8.52923583984375 C 13.2603759765625 8.193496704101562 13.60653686523438 7.78289794921875 13.86451721191406 7.31597900390625 C 14.12249755859375 6.849044799804688 14.29229736328125 6.325790405273438 14.35127258300781 5.764755249023438 C 14.35273742675781 5.750808715820312 14.35414123535156 5.736785888671875 14.35548400878906 5.722732543945312 C 14.35682678222656 5.70867919921875 14.35809326171875 5.694564819335938 14.35928344726562 5.680450439453125 C 14.3604736328125 5.666336059570312 14.36160278320312 5.652236938476562 14.3626708984375 5.63812255859375 C 14.36372375488281 5.624008178710938 14.36471557617188 5.60992431640625 14.36563110351562 5.595855712890625 C 14.38423156738281 5.3092041015625 14.37596130371094 5.02508544921875 14.34184265136719 4.746673583984375 C 14.3077392578125 4.468276977539062 14.24775695800781 4.195602416992188 14.1629638671875 3.931854248046875 C 14.07820129394531 3.6680908203125 13.96856689453125 3.413238525390625 13.83515930175781 3.170486450195312 C 13.70175170898438 2.927734375 13.54454040527344 2.697052001953125 13.36454772949219 2.481674194335938 C 13.18135070800781 2.262466430664062 12.97955322265625 2.065338134765625 12.76216125488281 1.891845703125 C 12.54475402832031 1.71832275390625 12.31175231933594 1.56842041015625 12.06610107421875 1.443634033203125 C 11.82041931152344 1.318832397460938 11.56210327148438 1.219161987304688 11.29408264160156 1.146087646484375 C 11.02607727050781 1.073013305664062 10.74838256835938 1.026565551757812 10.46394348144531 1.00823974609375 L 5.036483764648438 0.6083831787109375 C 4.46478271484375 0.5491943359375 3.90753173828125 0.609375 3.389480590820312 0.768768310546875 C 2.871429443359375 0.92816162109375 2.392578125 1.186813354492188 1.977630615234375 1.52459716796875 C 1.562713623046875 1.86236572265625 1.211700439453125 2.279266357421875 0.9493408203125 2.755233764648438 C 0.686981201171875 3.231170654296875 0.513275146484375 3.766159057617188 0.4529571533203125 4.340087890625 Z M 13.50393676757812 5.675704956054688 C 13.45697021484375 6.122604370117188 13.32093811035156 6.539337158203125 13.11408996582031 6.911178588867188 C 12.9072265625 7.283035278320312 12.62954711914062 7.6099853515625 12.29925537109375 7.87725830078125 C 11.96897888183594 8.144546508789062 11.58609008789062 8.352157592773438 11.16883850097656 8.485382080078125 C 10.75160217285156 8.618606567382812 10.29997253417969 8.677413940429688 9.83221435546875 8.64703369140625 L 4.3988037109375 8.247772216796875 C 4.1722412109375 8.233062744140625 3.951217651367188 8.196060180664062 3.738067626953125 8.137924194335938 C 3.524917602539062 8.079803466796875 3.319580078125 8.000595092773438 3.124420166015625 7.901443481445312 C 2.929244995117188 7.80230712890625 2.744216918945312 7.6832275390625 2.571624755859375 7.545440673828125 C 2.399032592773438 7.407669067382812 2.238876342773438 7.251174926757812 2.093460083007812 7.077117919921875 C 1.94866943359375 6.90386962890625 1.822235107421875 6.7181396484375 1.7149658203125 6.52252197265625 C 1.607681274414062 6.326919555664062 1.519577026367188 6.12139892578125 1.451416015625 5.908584594726562 C 1.383255004882812 5.695770263671875 1.3350830078125 5.475616455078125 1.307708740234375 5.250701904296875 C 1.28033447265625 5.02581787109375 1.273757934570312 4.796173095703125 1.288803100585938 4.5643310546875 C 1.289566040039062 4.552978515625 1.29034423828125 4.541641235351562 1.29119873046875 4.530349731445312 C 1.29205322265625 4.519058227539062 1.292938232421875 4.507797241210938 1.29388427734375 4.496536254882812 C 1.294845581054688 4.48529052734375 1.295852661132812 4.474044799804688 1.296920776367188 4.46282958984375 C 1.297988891601562 4.45159912109375 1.299118041992188 4.44036865234375 1.30029296875 4.42913818359375 C 1.348403930664062 3.971466064453125 1.486923217773438 3.54486083984375 1.69610595703125 3.165374755859375 C 1.905303955078125 2.785919189453125 2.185195922851562 2.453582763671875 2.5159912109375 2.184417724609375 C 2.8468017578125 1.915283203125 3.228515625 1.7093505859375 3.641448974609375 1.5826416015625 C 4.054397583007812 1.455963134765625 4.498519897460938 1.40850830078125 4.954086303710938 1.456405639648438 C 4.9552001953125 1.456512451171875 4.956298828125 1.456619262695312 4.957382202148438 1.45672607421875 C 4.95849609375 1.45684814453125 4.9595947265625 1.456939697265625 4.960708618164062 1.457046508789062 C 4.961807250976562 1.457138061523438 4.962905883789062 1.457229614257812 4.964019775390625 1.45733642578125 C 4.965103149414062 1.457412719726562 4.966217041015625 1.457504272460938 4.967330932617188 1.45758056640625 L 10.40524291992188 1.858200073242188 C 10.63185119628906 1.872802734375 10.85292053222656 1.909713745117188 11.06610107421875 1.967742919921875 C 11.279296875 2.025787353515625 11.484619140625 2.10491943359375 11.6798095703125 2.203994750976562 C 11.87498474121094 2.303070068359375 12.06002807617188 2.422088623046875 12.23262023925781 2.559814453125 C 12.40519714355469 2.697555541992188 12.56535339355469 2.854019165039062 12.71076965332031 3.028030395507812 C 12.85554504394531 3.201248168945312 12.98197937011719 3.386962890625 13.08924865722656 3.582550048828125 C 13.196533203125 3.77813720703125 13.28465270996094 3.983612060546875 13.35281372070312 4.196441650390625 C 13.42095947265625 4.40924072265625 13.46913146972656 4.629379272460938 13.49652099609375 4.854278564453125 C 13.52389526367188 5.079193115234375 13.53047180175781 5.308837890625 13.51541137695312 5.540679931640625 C 13.51466369628906 5.552032470703125 13.51388549804688 5.563339233398438 13.51303100585938 5.574630737304688 C 13.51217651367188 5.585906982421875 13.51129150390625 5.59716796875 13.51034545898438 5.608413696289062 C 13.50938415527344 5.619659423828125 13.50836181640625 5.630889892578125 13.50729370117188 5.64208984375 C 13.5062255859375 5.653305053710938 13.50511169433594 5.664505004882812 13.50393676757812 5.675704956054688 Z" stroke="none" fill="#000"/>
        </g>
        <g id="Caminho_1681-2" data-name="Caminho 1681" transform="translate(2.326 0.436)" fill="#ffc7de" stroke-linecap="round" stroke-linejoin="round" stroke-miterlimit="10">
          <path d="M.864,6.9a4.052,4.052,0,0,0,.19,1.524,3.9,3.9,0,0,0,.713,1.29,3.715,3.715,0,0,0,1.137.917,3.678,3.678,0,0,0,1.464.405l5.352.391a4.365,4.365,0,0,0,1.508-.156,3.6,3.6,0,0,0,1.264-.655A3.519,3.519,0,0,0,13.4,9.495a4.382,4.382,0,0,0,.452-1.567,4.644,4.644,0,0,0-.628-2.872,7.171,7.171,0,0,0-1.983-2.123A11.277,11.277,0,0,0,8.78,1.579a8.314,8.314,0,0,0-2.074-.567l.25,2.509-1.948-.2a3.924,3.924,0,0,0-2.817.945,3.87,3.87,0,0,0-.92,1.166A3.766,3.766,0,0,0,.864,6.9Z" stroke="none"/>
          <path d="M 0.4529571533203125 6.707489013671875 C 0.45147705078125 6.721466064453125 0.4500732421875 6.735504150390625 0.44873046875 6.74957275390625 C 0.4473724365234375 6.763641357421875 0.44610595703125 6.777740478515625 0.444915771484375 6.7918701171875 C 0.4437255859375 6.805999755859375 0.442596435546875 6.82012939453125 0.4415283203125 6.834228515625 C 0.4404754638671875 6.848342895507812 0.4394989013671875 6.862442016601562 0.4385833740234375 6.876495361328125 C 0.41998291015625 7.163131713867188 0.428253173828125 7.447250366210938 0.4623565673828125 7.72564697265625 C 0.4964752197265625 8.0040283203125 0.5564422607421875 8.276702880859375 0.6412353515625 8.54046630859375 C 0.7259979248046875 8.804229736328125 0.83563232421875 9.059112548828125 0.9690399169921875 9.3018798828125 C 1.102447509765625 9.544662475585938 1.259628295898438 9.775344848632812 1.43963623046875 9.99078369140625 C 1.622802734375 10.21002197265625 1.824554443359375 10.40715026855469 2.04193115234375 10.58070373535156 C 2.259307861328125 10.75425720214844 2.492294311523438 10.90420532226562 2.737945556640625 11.02908325195312 C 2.983596801757812 11.15396118164062 3.241897583007812 11.25375366210938 3.509902954101562 11.32691955566406 C 3.77789306640625 11.40008544921875 4.055557250976562 11.44664001464844 4.3399658203125 11.46510314941406 L 9.689056396484375 11.85549926757812 C 10.310546875 11.89582824707031 10.89189147949219 11.82853698730469 11.41836547851562 11.66610717773438 C 11.94486999511719 11.50369262695312 12.41651916503906 11.24612426757812 12.81863403320312 10.90586853027344 C 13.22074890136719 10.56562805175781 13.5533447265625 10.14271545410156 13.80172729492188 9.649627685546875 C 14.05009460449219 9.156524658203125 14.21424865722656 8.59326171875 14.27951049804688 7.9722900390625 C 14.34678649902344 7.332290649414062 14.29513549804688 6.741043090820312 14.15768432617188 6.197906494140625 C 14.02023315429688 5.654754638671875 13.79696655273438 5.15972900390625 13.52099609375 4.712081909179688 C 13.24501037597656 4.26446533203125 12.91630554199219 3.8642578125 12.5679931640625 3.51080322265625 C 12.21969604492188 3.157363891601562 11.85174560546875 2.8507080078125 11.49732971191406 2.590133666992188 C 11.08747863769531 2.288818359375 10.65695190429688 2.0205078125 10.22392272949219 1.785614013671875 C 9.790863037109375 1.550750732421875 9.355331420898438 1.34930419921875 8.935455322265625 1.181838989257812 C 8.515625 1.01434326171875 8.111434936523438 0.8807525634765625 7.741165161132812 0.7816162109375 C 7.370880126953125 0.6824493408203125 7.034469604492188 0.6176910400390625 6.750167846679688 0.587799072265625 C 6.718307495117188 0.5844573974609375 6.6865234375 0.584747314453125 6.655288696289062 0.588470458984375 C 6.624069213867188 0.5921630859375 6.59344482421875 0.5993194580078125 6.563980102539062 0.609710693359375 C 6.534500122070312 0.6201019287109375 6.50616455078125 0.6337432861328125 6.479522705078125 0.650421142578125 C 6.452880859375 0.6671142578125 6.427932739257812 0.6868438720703125 6.40521240234375 0.70941162109375 C 6.3876953125 0.7268524169921875 6.371871948242188 0.7456207275390625 6.357833862304688 0.7654876708984375 C 6.343780517578125 0.78533935546875 6.331512451171875 0.806304931640625 6.321121215820312 0.828094482421875 C 6.31072998046875 0.8498992919921875 6.302215576171875 0.872528076171875 6.295669555664062 0.895782470703125 C 6.289108276367188 0.91900634765625 6.284500122070312 0.9427947998046875 6.281967163085938 0.966949462890625 C 6.281219482421875 0.974090576171875 6.2806396484375 0.9812469482421875 6.280242919921875 0.98846435546875 C 6.27984619140625 0.9956512451171875 6.279632568359375 1.002899169921875 6.279617309570312 1.0101318359375 C 6.27960205078125 1.017379760742188 6.279754638671875 1.024627685546875 6.280120849609375 1.031890869140625 C 6.280487060546875 1.039169311523438 6.281021118164062 1.04644775390625 6.281753540039062 1.053741455078125 L 6.479965209960938 3.0419921875 L 5.052032470703125 2.89190673828125 C 5.050613403320312 2.891754150390625 5.049209594726562 2.891632080078125 5.04779052734375 2.8914794921875 C 5.04638671875 2.891342163085938 5.04498291015625 2.891220092773438 5.043563842773438 2.891098022460938 C 5.042144775390625 2.890975952148438 5.040756225585938 2.890869140625 5.039337158203125 2.890762329101562 C 5.037918090820312 2.890655517578125 5.0364990234375 2.89056396484375 5.03509521484375 2.890472412109375 C 4.756668090820312 2.872406005859375 4.479904174804688 2.8809814453125 4.207901000976562 2.9151611328125 C 3.935882568359375 2.9493408203125 3.66864013671875 3.009124755859375 3.409286499023438 3.093521118164062 C 3.149917602539062 3.177902221679688 2.898468017578125 3.286880493164062 2.65802001953125 3.419448852539062 C 2.417587280273438 3.552017211914062 2.18817138671875 3.708145141601562 1.972915649414062 3.886825561523438 C 1.756805419921875 4.066207885742188 1.561004638671875 4.26336669921875 1.38702392578125 4.475387573242188 C 1.213043212890625 4.68743896484375 1.0609130859375 4.914337158203125 0.93218994140625 5.153228759765625 C 0.8034515380859375 5.392120361328125 0.6981048583984375 5.643035888671875 0.617706298828125 5.903030395507812 C 0.537322998046875 6.16302490234375 0.4818878173828125 6.432159423828125 0.4529571533203125 6.707489013671875 Z M 13.43218994140625 7.883224487304688 C 13.37889099121094 8.3902587890625 13.24853515625 8.847137451171875 13.05131530761719 9.24517822265625 C 12.8541259765625 9.643234252929688 12.59007263183594 9.982467651367188 12.2694091796875 10.25421142578125 C 11.94873046875 10.52595520019531 11.57142639160156 10.730224609375 11.14772033691406 10.85833740234375 C 10.72402954101562 10.98643493652344 10.25395202636719 11.03837585449219 9.747665405273438 11.00552368164062 L 4.398590087890625 10.61514282226562 C 3.93072509765625 10.58477783203125 3.494537353515625 10.46087646484375 3.10540771484375 10.26174926757812 C 2.716278076171875 10.06260681152344 2.37420654296875 9.788223266601562 2.094558715820312 9.456878662109375 C 1.814926147460938 9.12554931640625 1.59771728515625 8.737274169921875 1.45831298828125 8.310302734375 C 1.318878173828125 7.883346557617188 1.25726318359375 7.417709350585938 1.288803100585938 6.93170166015625 C 1.289520263671875 6.920364379882812 1.290313720703125 6.9090576171875 1.291168212890625 6.897750854492188 C 1.292007446289062 6.886459350585938 1.29290771484375 6.87518310546875 1.293853759765625 6.863922119140625 C 1.294830322265625 6.852645874023438 1.295852661132812 6.841400146484375 1.296920776367188 6.830169677734375 C 1.2979736328125 6.818939208984375 1.299102783203125 6.8077392578125 1.300277709960938 6.796539306640625 C 1.347610473632812 6.346115112304688 1.485992431640625 5.922698974609375 1.695632934570312 5.542739868164062 C 1.905242919921875 5.16278076171875 2.186111450195312 4.826278686523438 2.518463134765625 4.549652099609375 C 2.850799560546875 4.273040771484375 3.234588623046875 4.056304931640625 3.650070190429688 3.915908813476562 C 4.065536499023438 3.7755126953125 4.512680053710938 3.71142578125 4.971694946289062 3.740142822265625 L 6.911224365234375 3.944000244140625 C 6.943084716796875 3.947357177734375 6.97491455078125 3.947067260742188 7.006134033203125 3.943344116210938 C 7.037353515625 3.93963623046875 7.067962646484375 3.9324951171875 7.097442626953125 3.922103881835938 C 7.126922607421875 3.911697387695312 7.155242919921875 3.8980712890625 7.181884765625 3.881378173828125 C 7.208541870117188 3.864700317382812 7.233489990234375 3.844970703125 7.256195068359375 3.8223876953125 C 7.273712158203125 3.804962158203125 7.28955078125 3.786178588867188 7.3035888671875 3.766311645507812 C 7.317642211914062 3.7464599609375 7.32989501953125 3.725509643554688 7.340286254882812 3.703704833984375 C 7.350677490234375 3.681900024414062 7.359207153320312 3.659271240234375 7.365768432617188 3.63604736328125 C 7.372314453125 3.612823486328125 7.37689208984375 3.589019775390625 7.379440307617188 3.564865112304688 C 7.38018798828125 3.557723999023438 7.380767822265625 3.550537109375 7.38116455078125 3.543350219726562 C 7.381546020507812 3.536148071289062 7.381744384765625 3.528900146484375 7.38177490234375 3.52166748046875 C 7.381805419921875 3.514419555664062 7.381622314453125 3.507186889648438 7.381256103515625 3.499908447265625 C 7.380935668945312 3.492645263671875 7.380386352539062 3.485366821289062 7.379669189453125 3.47808837890625 L 7.184661865234375 1.52203369140625 C 7.453277587890625 1.58038330078125 7.748809814453125 1.66278076171875 8.060226440429688 1.767669677734375 C 8.371673583984375 1.87255859375 8.698959350585938 1.99993896484375 9.031036376953125 2.148239135742188 C 9.363143920898438 2.296554565429688 9.700027465820312 2.465774536132812 10.03065490722656 2.65435791015625 C 10.36128234863281 2.842926025390625 10.68562316894531 3.050857543945312 10.99264526367188 3.276580810546875 C 11.30216979980469 3.504135131835938 11.62359619140625 3.770950317382812 11.92807006835938 4.076873779296875 C 12.23252868652344 4.3828125 12.52003479003906 4.72784423828125 12.76179504394531 5.111892700195312 C 13.0035400390625 5.495941162109375 13.19949340820312 5.918991088867188 13.32083129882812 6.380935668945312 C 13.44218444824219 6.84283447265625 13.4888916015625 7.343643188476562 13.43218994140625 7.883224487304688 Z" stroke="none" fill="#000"/>
        </g>
        <g id="Caminho_1682-2" data-name="Caminho 1682" transform="translate(8.433)" fill="none" stroke-linecap="round" stroke-linejoin="round" stroke-miterlimit="10">
          <path d="M12.891,1.8.505,1.522" stroke="none"/>
          <path d="M 0.0816192626953125 1.476699829101562 C 0.081298828125 1.479629516601562 0.081024169921875 1.482559204101562 0.0807952880859375 1.4854736328125 C 0.0805511474609375 1.488433837890625 0.0803375244140625 1.49139404296875 0.08013916015625 1.494354248046875 C 0.0799560546875 1.497329711914062 0.079803466796875 1.500289916992188 0.0796661376953125 1.503265380859375 C 0.0795440673828125 1.506256103515625 0.079437255859375 1.509246826171875 0.079376220703125 1.512252807617188 C 0.07806396484375 1.571060180664062 0.0887451171875 1.627334594726562 0.1091766357421875 1.67877197265625 C 0.1295928955078125 1.730194091796875 0.159759521484375 1.776763916015625 0.19744873046875 1.816177368164062 C 0.235137939453125 1.855560302734375 0.28033447265625 1.88775634765625 0.3307952880859375 1.910430908203125 C 0.3812713623046875 1.93310546875 0.4370269775390625 1.946258544921875 0.4958343505859375 1.94757080078125 L 12.88201904296875 2.221771240234375 C 12.93782043457031 2.2230224609375 12.99136352539062 2.21343994140625 13.04061889648438 2.19500732421875 C 13.08990478515625 2.17657470703125 13.13491821289062 2.149261474609375 13.17367553710938 2.114990234375 C 13.21241760253906 2.080718994140625 13.24490356445312 2.039443969726562 13.26913452148438 1.993118286132812 C 13.29338073730469 1.946807861328125 13.30937194824219 1.895431518554688 13.31509399414062 1.840896606445312 C 13.31539916992188 1.837966918945312 13.31568908691406 1.83502197265625 13.31593322753906 1.832077026367188 C 13.31617736816406 1.829116821289062 13.31640625 1.826171875 13.31658935546875 1.823211669921875 C 13.3167724609375 1.820236206054688 13.31694030761719 1.817276000976562 13.31706237792969 1.814300537109375 C 13.31719970703125 1.811309814453125 13.31729125976562 1.808319091796875 13.31733703613281 1.805313110351562 C 13.31864929199219 1.746505737304688 13.3079833984375 1.690231323242188 13.28753662109375 1.6387939453125 C 13.26712036132812 1.587371826171875 13.23696899414062 1.540786743164062 13.19927978515625 1.501388549804688 C 13.16160583496094 1.462005615234375 13.11640930175781 1.4298095703125 13.06591796875 1.407135009765625 C 13.01544189453125 1.38446044921875 12.95967102050781 1.371307373046875 12.90087890625 1.3699951171875 L 0.5146942138671875 1.095779418945312 C 0.4588775634765625 1.09454345703125 0.4053497314453125 1.104110717773438 0.3560791015625 1.122543334960938 C 0.3068084716796875 1.1409912109375 0.261810302734375 1.168289184570312 0.223052978515625 1.20257568359375 C 0.184295654296875 1.236846923828125 0.1518096923828125 1.278121948242188 0.1275634765625 1.324447631835938 C 0.10333251953125 1.370758056640625 0.08734130859375 1.422149658203125 0.0816192626953125 1.476699829101562 Z" stroke="none" fill="#000"/>
        </g>
      </g>
      <g id="menuxp-logo-vertical" transform="translate(-2706.773 3161.89)">
        <path id="fundo" d="M4015.893,607.889l1.773-1.773a1.614,1.614,0,0,1,1.266-.448l18.049-.007s1.468.206,1.468,1.475v17.356a1.875,1.875,0,0,1-.626,1.356l-1.625,1.625a1.717,1.717,0,0,1-1.118.477c-.671.01-18.2,0-18.2,0a1.511,1.511,0,0,1-1.476-1.49V608.984A1.509,1.509,0,0,1,4015.893,607.889Z" transform="translate(-3251 -231.74)"/>
        <g id="XP" transform="translate(766.977 381.57)">
          <path id="P" d="M4.414,11.737H0V0H10.353V7.977A1.564,1.564,0,0,1,8.788,9.542L4.414,9.5ZM4.394,1.5v6.5h.722A.783.783,0,0,0,5.9,7.223V1.5Z" transform="translate(9.33 0)" fill="#0097e0"/>
          <path id="X" d="M0,0H4.048L5.6,3.6,7.217,0H8.709V4.665l-.543,1.22.536,1.2v4.655H6.885L5.46,8.365,4.029,11.737H1.565A1.565,1.565,0,0,1,0,10.172l2.668-4.3Z" transform="translate(0 0)" fill="#f33a40"/>
        </g>
        <path id="menu" d="M-2356.608,742.281h-19.622v-4.454a1.55,1.55,0,0,1,.123-.609,1.556,1.556,0,0,1,.336-.5,1.552,1.552,0,0,1,.5-.335,1.555,1.555,0,0,1,.609-.123h16.492a1.556,1.556,0,0,1,.609.123,1.555,1.555,0,0,1,.5.335,1.564,1.564,0,0,1,.336.5,1.562,1.562,0,0,1,.123.609Zm-6.3-4.552v1.906a2.47,2.47,0,0,0,.061.6.724.724,0,0,0,.212.371.893.893,0,0,0,.412.19,3.231,3.231,0,0,0,.66.056,3.268,3.268,0,0,0,.663-.056.881.881,0,0,0,.415-.193.749.749,0,0,0,.214-.373,2.348,2.348,0,0,0,.063-.592v-1.906h-.975v2.028a.353.353,0,0,1-.029.159.163.163,0,0,1-.1.078.879.879,0,0,1-.227.022h-.39v-2.287Zm-2.242,1.633h.029a.477.477,0,0,0,.03.149,1.19,1.19,0,0,0,.093.2l.663,1.068h.966v-3.047h-.976v1.414h-.029a.514.514,0,0,0-.027-.154.827.827,0,0,0-.1-.193l-.663-1.068h-.965v3.047h.975Zm-5.031-.063h.034l.078,1.477h.97l-.186-3.047h-1.224l-.38,1.55h-.034l-.38-1.55h-1.224l-.185,3.047h.97l.078-1.477h.03l.356,1.477h.746l.351-1.477Zm1.5-1.57v3.047h2.12v-.8h-1.146v-.366h.975V738.9h-.975v-.366h1.048l.122-.8Z" transform="translate(3143.237 -361.373)" fill="#feba0c"/>
      </g>
    </g>
    <g id="Exclusão_1" data-name="Exclusão 1" transform="matrix(0.914, -0.407, 0.407, 0.914, -1962.351, 3424.124)" fill="none">
      <path d="M54.5,29h-40A14.5,14.5,0,0,1,4.247,4.247,14.405,14.405,0,0,1,14.5,0h40A14.5,14.5,0,0,1,64.753,24.753,14.405,14.405,0,0,1,54.5,29ZM52.745,16.478A3.625,3.625,0,1,0,56.394,20.1,3.641,3.641,0,0,0,52.745,16.478ZM10.3,10.546a3,3,0,0,0-3,3V14.8a3,3,0,0,0,3,3h2.308v2.273a3,3,0,0,0,3,3h1.3a3,3,0,0,0,3-3V17.8h2.308a3,3,0,0,0,3-3v-1.25a3,3,0,0,0-3-3H19.9V8.273a3,3,0,0,0-3-3h-1.3a3,3,0,0,0-3,3v2.273Zm48.418.659a3.625,3.625,0,1,0,3.649,3.625A3.641,3.641,0,0,0,58.716,11.205Zm-11.279,0a3.625,3.625,0,1,0,3.65,3.625A3.641,3.641,0,0,0,47.437,11.205Zm5.308-5.932A3.625,3.625,0,1,0,56.394,8.9,3.642,3.642,0,0,0,52.745,5.273Z" stroke="none"/>
      <path d="M 54.50040435791016 28.99980163574219 C 58.37353134155273 28.99980163574219 62.01479339599609 27.4915599822998 64.75343322753906 24.75293159484863 C 67.4920654296875 22.01429176330566 69.00030517578125 18.37303161621094 69.00030517578125 14.49990081787109 C 69.00030517578125 10.62677097320557 67.4920654296875 6.98551082611084 64.75343322753906 4.246870994567871 C 62.01479339599609 1.508240818977356 58.37353134155273 8.178710686479462e-07 54.50040435791016 8.178710686479462e-07 L 14.49990272521973 8.178710686479462e-07 C 10.6267728805542 8.178710686479462e-07 6.985512733459473 1.508240818977356 4.246872425079346 4.246870994567871 C 1.508242607116699 6.98551082611084 2.587890548966243e-06 10.62677097320557 2.587890548966243e-06 14.49990081787109 C 2.587890548966243e-06 18.37303161621094 1.508242607116699 22.01429176330566 4.246872425079346 24.75293159484863 C 6.985512733459473 27.4915599822998 10.6267728805542 28.99980163574219 14.49990272521973 28.99980163574219 L 54.50040435791016 28.99980163574219 M 52.74540328979492 16.47810173034668 C 54.75724411010742 16.47810173034668 56.39400100708008 18.10395050048828 56.39400100708008 20.10240173339844 C 56.39400100708008 22.10134124755859 54.75724411010742 23.72760009765625 52.74540328979492 23.72760009765625 C 50.73306274414062 23.72760009765625 49.09590148925781 22.10134124755859 49.09590148925781 20.10240173339844 C 49.09590148925781 18.10395050048828 50.73306274414062 16.47810173034668 52.74540328979492 16.47810173034668 M 10.29780292510986 10.5462007522583 L 12.60540294647217 10.5462007522583 L 12.60540294647217 8.272800445556641 C 12.60540294647217 6.618760585784912 13.9514627456665 5.273100852966309 15.60600280761719 5.273100852966309 L 16.9038028717041 5.273100852966309 C 18.55784225463867 5.273100852966309 19.90350341796875 6.618760585784912 19.90350341796875 8.272800445556641 L 19.90350341796875 10.5462007522583 L 22.21200180053711 10.5462007522583 C 23.86604309082031 10.5462007522583 25.21170234680176 11.89186096191406 25.21170234680176 13.54590034484863 L 25.21170234680176 14.79600048065186 C 25.21170234680176 16.45004081726074 23.86604309082031 17.79570007324219 22.21200180053711 17.79570007324219 L 19.90350341796875 17.79570007324219 L 19.90350341796875 20.06820106506348 C 19.90350341796875 21.72274017333984 18.55784225463867 23.06879997253418 16.9038028717041 23.06879997253418 L 15.60600280761719 23.06879997253418 C 13.9514627456665 23.06879997253418 12.60540294647217 21.72274017333984 12.60540294647217 20.06820106506348 L 12.60540294647217 17.79570007324219 L 10.29780292510986 17.79570007324219 C 8.643762588500977 17.79570007324219 7.298102378845215 16.45004081726074 7.298102378845215 14.79600048065186 L 7.298102378845215 13.54590034484863 C 7.298102378845215 11.89186096191406 8.643762588500977 10.5462007522583 10.29780292510986 10.5462007522583 M 58.71600341796875 11.20500087738037 C 60.72834396362305 11.20500087738037 62.36550140380859 12.83126068115234 62.36550140380859 14.83020114898682 C 62.36550140380859 16.82865142822266 60.72834396362305 18.45450019836426 58.71600341796875 18.45450019836426 C 56.70416259765625 18.45450019836426 55.06740188598633 16.82865142822266 55.06740188598633 14.83020114898682 C 55.06740188598633 12.83126068115234 56.70416259765625 11.20500087738037 58.71600341796875 11.20500087738037 M 47.43720245361328 11.20500087738037 C 49.44954299926758 11.20500087738037 51.08670425415039 12.83126068115234 51.08670425415039 14.83020114898682 C 51.08670425415039 16.82865142822266 49.44954299926758 18.45450019836426 47.43720245361328 18.45450019836426 C 45.42536163330078 18.45450019836426 43.78860092163086 16.82865142822266 43.78860092163086 14.83020114898682 C 43.78860092163086 12.83126068115234 45.42536163330078 11.20500087738037 47.43720245361328 11.20500087738037 M 52.74540328979492 5.273100852966309 C 54.75724411010742 5.273100852966309 56.39400100708008 6.899360656738281 56.39400100708008 8.898301124572754 C 56.39400100708008 10.89675045013428 54.75724411010742 12.52260112762451 52.74540328979492 12.52260112762451 C 50.73306274414062 12.52260112762451 49.09590148925781 10.89675045013428 49.09590148925781 8.898301124572754 C 49.09590148925781 6.899360656738281 50.73306274414062 5.273100852966309 52.74540328979492 5.273100852966309 M 54.50040435791016 29.49980163574219 L 14.49990272521973 29.49980163574219 C 10.4932222366333 29.49980163574219 6.726402759552002 27.93955993652344 3.893322706222534 25.10648155212402 C 1.060242533683777 22.27340126037598 -0.4999974071979523 18.5065803527832 -0.4999974071979523 14.49990081787109 C -0.4999974071979523 10.49322128295898 1.060242533683777 6.726400852203369 3.893322706222534 3.893320798873901 C 6.726402759552002 1.060240864753723 10.4932222366333 -0.4999991953372955 14.49990272521973 -0.4999991953372955 L 54.50040435791016 -0.4999991953372955 C 58.50708389282227 -0.4999991953372955 62.27390289306641 1.060240864753723 65.10697937011719 3.893320798873901 C 67.9400634765625 6.726400852203369 69.50030517578125 10.49322128295898 69.50030517578125 14.49990081787109 C 69.50030517578125 18.5065803527832 67.9400634765625 22.27340126037598 65.10697937011719 25.10648155212402 C 62.27390289306641 27.93955993652344 58.50708389282227 29.49980163574219 54.50040435791016 29.49980163574219 Z M 52.74540328979492 16.97810173034668 C 51.00876235961914 16.97810173034668 49.59590148925781 18.37966156005859 49.59590148925781 20.10240173339844 C 49.59590148925781 21.82564163208008 51.00876235961914 23.22760009765625 52.74540328979492 23.22760009765625 C 54.48154449462891 23.22760009765625 55.89400100708008 21.82564163208008 55.89400100708008 20.10240173339844 C 55.89400100708008 18.37966156005859 54.48154449462891 16.97810173034668 52.74540328979492 16.97810173034668 Z M 10.29780292510986 11.0462007522583 C 8.919462203979492 11.0462007522583 7.798102378845215 12.16756057739258 7.798102378845215 13.54590034484863 L 7.798102378845215 14.79600048065186 C 7.798102378845215 16.17434120178223 8.919462203979492 17.29570007324219 10.29780292510986 17.29570007324219 L 13.10540294647217 17.29570007324219 L 13.10540294647217 20.06820106506348 C 13.10540294647217 21.44704055786133 14.22716236114502 22.56879997253418 15.60600280761719 22.56879997253418 L 16.9038028717041 22.56879997253418 C 18.28214263916016 22.56879997253418 19.40350341796875 21.44704055786133 19.40350341796875 20.06820106506348 L 19.40350341796875 17.29570007324219 L 22.21200180053711 17.29570007324219 C 23.5903434753418 17.29570007324219 24.71170234680176 16.17434120178223 24.71170234680176 14.79600048065186 L 24.71170234680176 13.54590034484863 C 24.71170234680176 12.16756057739258 23.5903434753418 11.0462007522583 22.21200180053711 11.0462007522583 L 19.40350341796875 11.0462007522583 L 19.40350341796875 8.272800445556641 C 19.40350341796875 6.894460678100586 18.28214263916016 5.773100852966309 16.9038028717041 5.773100852966309 L 15.60600280761719 5.773100852966309 C 14.22716236114502 5.773100852966309 13.10540294647217 6.894460678100586 13.10540294647217 8.272800445556641 L 13.10540294647217 11.0462007522583 L 10.29780292510986 11.0462007522583 Z M 58.71600341796875 11.70500087738037 C 56.97986221313477 11.70500087738037 55.56740188598633 13.10696125030518 55.56740188598633 14.83020114898682 C 55.56740188598633 16.55294036865234 56.97986221313477 17.95450019836426 58.71600341796875 17.95450019836426 C 60.45264434814453 17.95450019836426 61.86550140380859 16.55294036865234 61.86550140380859 14.83020114898682 C 61.86550140380859 13.10696125030518 60.45264434814453 11.70500087738037 58.71600341796875 11.70500087738037 Z M 47.43720245361328 11.70500087738037 C 45.7010612487793 11.70500087738037 44.28860092163086 13.10696125030518 44.28860092163086 14.83020114898682 C 44.28860092163086 16.55294036865234 45.7010612487793 17.95450019836426 47.43720245361328 17.95450019836426 C 49.17384338378906 17.95450019836426 50.58670425415039 16.55294036865234 50.58670425415039 14.83020114898682 C 50.58670425415039 13.10696125030518 49.17384338378906 11.70500087738037 47.43720245361328 11.70500087738037 Z M 52.74540328979492 5.773100852966309 C 51.00876235961914 5.773100852966309 49.59590148925781 7.175060749053955 49.59590148925781 8.898301124572754 C 49.59590148925781 10.62104034423828 51.00876235961914 12.02260112762451 52.74540328979492 12.02260112762451 C 54.48154449462891 12.02260112762451 55.89400100708008 10.62104034423828 55.89400100708008 8.898301124572754 C 55.89400100708008 7.175060749053955 54.48154449462891 5.773100852966309 52.74540328979492 5.773100852966309 Z" stroke="none" fill="#fff"/>
    </g>
    <path id="seal-percent-fill" d="M29.79,31.169a1.379,1.379,0,1,1,1.379-1.379A1.379,1.379,0,0,1,29.79,31.169Zm11.032,8.274A1.379,1.379,0,1,0,42.2,40.822,1.379,1.379,0,0,0,40.822,39.443Zm13.79-4.137c0,1.8-1.295,3.149-2.437,4.34A7.92,7.92,0,0,0,50.6,41.64a7.574,7.574,0,0,0-.262,2.4c-.026,1.682-.053,3.589-1.379,4.914s-3.232,1.353-4.914,1.379a7.574,7.574,0,0,0-2.4.262,7.92,7.92,0,0,0-1.994,1.575c-1.191,1.143-2.541,2.437-4.34,2.437s-3.149-1.295-4.34-2.437A7.92,7.92,0,0,0,28.971,50.6a7.574,7.574,0,0,0-2.4-.262c-1.682-.026-3.589-.053-4.914-1.379s-1.353-3.232-1.379-4.914a7.574,7.574,0,0,0-.262-2.4,7.92,7.92,0,0,0-1.575-1.994C17.295,38.455,16,37.105,16,35.306s1.295-3.149,2.437-4.34a7.92,7.92,0,0,0,1.575-1.994,7.574,7.574,0,0,0,.262-2.4c.026-1.682.053-3.589,1.379-4.914s3.232-1.353,4.914-1.379a7.574,7.574,0,0,0,2.4-.262,7.92,7.92,0,0,0,1.994-1.575C32.156,17.295,33.506,16,35.306,16s3.149,1.295,4.34,2.437a7.92,7.92,0,0,0,1.994,1.575,7.574,7.574,0,0,0,2.4.262c1.682.026,3.589.053,4.914,1.379s1.353,3.232,1.379,4.914a7.574,7.574,0,0,0,.262,2.4,7.92,7.92,0,0,0,1.575,1.994C53.317,32.156,54.611,33.506,54.611,35.306ZM29.79,33.927a4.137,4.137,0,1,0-4.137-4.137A4.137,4.137,0,0,0,29.79,33.927Zm13.386-4.54a1.38,1.38,0,0,0-1.951-1.951l-13.79,13.79a1.38,1.38,0,0,0,1.951,1.951Zm1.782,11.435a4.137,4.137,0,1,0-4.137,4.137A4.137,4.137,0,0,0,44.959,40.822Z" transform="translate(-1842.736 3463.523) rotate(18)" fill="none" stroke="#fff" stroke-width="0.5"/>
    <path id="Caminho_1773" data-name="Caminho 1773" d="M205.4,13.746l5.621,9.1M222.972,8.483l-1.606,13.294m8.83,4.1,9.458-4.55" transform="translate(-2085.595 3389.126) rotate(31)" fill="none" stroke="#feba0c" stroke-linecap="round" stroke-linejoin="round" stroke-miterlimit="10" stroke-width="0.866"/>
    <g id="trophy-fill" transform="translate(-2059.698 3516.835) rotate(16)" fill="none">
      <path d="M52.391,44.756H47.635V41.585A1.585,1.585,0,0,0,46.049,40H17.512a1.585,1.585,0,0,0-1.585,1.585v3.171H11.171A3.171,3.171,0,0,0,8,47.927V51.1a7.927,7.927,0,0,0,7.927,7.927h.723A15.88,15.88,0,0,0,30.2,70.045v4.833H25.439a1.585,1.585,0,1,0,0,3.171H38.122a1.585,1.585,0,1,0,0-3.171H33.366V70.039A15.957,15.957,0,0,0,46.858,59.025h.777A7.927,7.927,0,0,0,55.562,51.1V47.927A3.171,3.171,0,0,0,52.391,44.756Zm-36.464,11.1A4.756,4.756,0,0,1,11.171,51.1V47.927h4.756v6.342q0,.793.077,1.585ZM52.391,51.1a4.756,4.756,0,0,1-4.756,4.756h-.1a16.214,16.214,0,0,0,.1-1.764V47.927h4.756Z" stroke="none"/>
      <path d="M 17.51230239868164 39.99999237060547 C 16.63672256469727 39.99999237060547 15.92692184448242 40.70980834960938 15.92692184448242 41.58538818359375 L 15.92692184448242 44.75614166259766 L 11.17077255249023 44.75614166259766 C 9.419601440429688 44.75614166259766 8 46.17575836181641 8 47.92691802978516 L 8 51.09768676757812 C 8 55.47560501098633 11.54900360107422 59.02460479736328 15.92692184448242 59.02460479736328 L 16.65025329589844 59.02460479736328 C 18.55903244018555 65.07365417480469 23.8845329284668 69.40650939941406 30.19537353515625 70.04500579833984 L 30.19537353515625 74.87844848632812 L 25.4392204284668 74.87844848632812 C 24.56364059448242 74.87844848632812 23.85383987426758 75.58824157714844 23.85383987426758 76.46382141113281 C 23.85383987426758 77.33941650390625 24.56364059448242 78.04920959472656 25.4392204284668 78.04920959472656 L 38.12229156494141 78.04920959472656 C 38.99787902832031 78.04920959472656 39.70767974853516 77.33941650390625 39.70767974853516 76.46382141113281 C 39.70767974853516 75.58824157714844 38.99787902832031 74.87844848632812 38.12229156494141 74.87844848632812 L 33.36614227294922 74.87844848632812 L 33.36614227294922 70.0390625 C 39.69579315185547 69.39896392822266 44.94737243652344 64.95790100097656 46.85776138305664 59.02460479736328 L 47.63460159301758 59.02460479736328 C 52.01251983642578 59.02460479736328 55.5615234375 55.47560501098633 55.5615234375 51.09768676757812 L 55.5615234375 47.92691802978516 C 55.5615234375 46.17575836181641 54.14192199707031 44.75614166259766 52.39075088500977 44.75614166259766 L 47.63460159301758 44.75614166259766 L 47.63460159301758 41.58538818359375 C 47.63460159301758 40.70980834960938 46.92478942871094 39.99999237060547 46.04920959472656 39.99999237060547 L 17.51230239868164 39.99999237060547 M 16.00421142578125 55.85383605957031 L 15.92692184448242 55.85383605957031 C 13.3001708984375 55.85383605957031 11.17077255249023 53.72444152832031 11.17077255249023 51.09768676757812 L 11.17077255249023 47.92691802978516 L 15.92692184448242 47.92691802978516 L 15.92692184448242 54.26845550537109 C 15.92692184448242 54.79691314697266 15.95268249511719 55.32537460327148 16.00421142578125 55.85383605957031 M 47.63460159301758 55.85383605957031 L 47.5355110168457 55.85383605957031 C 47.60057067871094 55.26816558837891 47.63365173339844 54.67937469482422 47.63460159301758 54.09009552001953 L 47.63460159301758 47.92691802978516 L 52.39075088500977 47.92691802978516 L 52.39075088500977 51.09768676757812 C 52.39075088500977 53.72444152832031 50.2613525390625 55.85383605957031 47.63460159301758 55.85383605957031 M 17.51230239868164 39.49999237060547 L 46.04920959472656 39.49999237060547 C 47.19910430908203 39.49999237060547 48.13460159301758 40.43549346923828 48.13460159301758 41.58538818359375 L 48.13460159301758 44.25614166259766 L 52.39075088500977 44.25614166259766 C 54.41482162475586 44.25614166259766 56.0615234375 45.90284729003906 56.0615234375 47.92691802978516 L 56.0615234375 51.09768676757812 C 56.0615234375 55.74430465698242 52.28121948242188 59.52460479736328 47.63460159301758 59.52460479736328 L 47.21784591674805 59.52460479736328 C 46.21895599365234 62.4089469909668 44.45068359375 64.95368957519531 42.08727264404297 66.90254211425781 C 39.7120361328125 68.86116027832031 36.87807464599609 70.09437561035156 33.86614227294922 70.48466491699219 L 33.86614227294922 74.37844848632812 L 38.12229156494141 74.37844848632812 C 39.27218246459961 74.37844848632812 40.20767974853516 75.31394958496094 40.20767974853516 76.46382141113281 C 40.20767974853516 77.61370849609375 39.27218246459961 78.54920959472656 38.12229156494141 78.54920959472656 L 25.4392204284668 78.54920959472656 C 24.28934097290039 78.54920959472656 23.35383987426758 77.61370849609375 23.35383987426758 76.46382141113281 C 23.35383987426758 75.31394958496094 24.28934097290039 74.37844848632812 25.4392204284668 74.37844848632812 L 29.69537353515625 74.37844848632812 L 29.69537353515625 70.49073791503906 C 23.49826431274414 69.69191741943359 18.30190658569336 65.44485473632812 16.28802108764648 59.52460479736328 L 15.92692184448242 59.52460479736328 C 11.28030014038086 59.52460479736328 7.5 55.74430465698242 7.5 51.09768676757812 L 7.5 47.92691802978516 C 7.5 45.90284729003906 9.146701812744141 44.25614166259766 11.17077255249023 44.25614166259766 L 15.42692184448242 44.25614166259766 L 15.42692184448242 41.58538818359375 C 15.42692184448242 40.43549346923828 16.36242294311523 39.49999237060547 17.51230239868164 39.49999237060547 Z M 15.42692184448242 48.42691802978516 L 11.67077255249023 48.42691802978516 L 11.67077255249023 51.09768676757812 C 11.67077255249023 53.28697204589844 13.33222961425781 55.09547805786133 15.46052169799805 55.32845306396484 C 15.43819046020508 54.9747314453125 15.42692184448242 54.61997985839844 15.42692184448242 54.26845550537109 L 15.42692184448242 48.42691802978516 Z M 51.89075088500977 48.42691802978516 L 48.13460159301758 48.42691802978516 L 48.13460159301758 54.09009552001953 C 48.13393402099609 54.50241470336914 48.11781311035156 54.91738891601562 48.08651733398438 55.33001327514648 C 50.22161865234375 55.10355377197266 51.89075088500977 53.29183959960938 51.89075088500977 51.09768676757812 L 51.89075088500977 48.42691802978516 Z" stroke="none" fill="#fff"/>
    </g>
  </g>
</svg>
