<svg xmlns="http://www.w3.org/2000/svg" width="215.554" height="217.79" viewBox="0 0 215.554 217.79">
  <g id="no-login" transform="translate(3576 -4205.764)">
    <circle id="Elipse_16" data-name="Elipse 16" cx="100" cy="100" r="100" transform="translate(-3576 4223)" fill="#e53036" opacity="0.12"/>
    <g id="Grupo_2662" data-name="Grupo 2662" transform="translate(-1703.076 -326.146)">
      <g id="搜索" transform="translate(-1866.673 4532.332)">
        <path id="Caminho_1337" data-name="Caminho 1337" d="M225.924,42.155H100.252V224.44H226V43.162a4.384,4.384,0,0,1-.072-1.006Z" transform="translate(-65.938 -25.826)" fill="#fff" stroke="#000" stroke-miterlimit="10" stroke-width="0.844"/>
        <path id="Caminho_1338" data-name="Caminho 1338" d="M100.168,222.477A17.346,17.346,0,0,0,117.5,239.814h91.071a17.346,17.346,0,0,0,17.337-17.337v-.863H100.168ZM208.574,23H117.5A17.283,17.283,0,0,0,100.24,39.329H225.911A17.452,17.452,0,0,0,208.574,23Z" transform="translate(-65.926 -23)" fill="#feba0c" stroke="#000" stroke-miterlimit="10" stroke-width="0.844"/>
        <path id="Caminho_1339" data-name="Caminho 1339" d="M215.905,54.223H114.26V141.85H215.905Z" transform="translate(-68.005 -27.606)" fill="#0097e0" stroke="#000" stroke-linecap="round" stroke-linejoin="round" stroke-miterlimit="10" stroke-width="0.844"/>
        <path id="Caminho_1341" data-name="Caminho 1341" d="M113.752,206.453H216.333m-102.581,8.128h29.206m-2.23,42.515H193.1" transform="translate(-67.93 -50.064)" fill="none" stroke="#000" stroke-miterlimit="10" stroke-width="0.844"/>
        <path id="Caminho_1342" data-name="Caminho 1342" d="M171.62,34.1a1.583,1.583,0,1,0-1.583-1.583A1.583,1.583,0,0,0,171.62,34.1Z" transform="translate(-76.233 -24.17)"/>
        <path id="Caminho_1343" data-name="Caminho 1343" d="M99.647,62.24H97.129V82.526h2.518Zm0,26.616H97.129v20.285h2.518Z" transform="translate(-65.478 -28.789)" fill="#dedfea" stroke="#000" stroke-linecap="round" stroke-linejoin="round" stroke-miterlimit="10" stroke-width="0.844"/>
        <path id="Caminho_1345" data-name="Caminho 1345" d="M60,277.336H262.427" transform="translate(-60 -60.521)" fill="none" stroke="#000" stroke-miterlimit="10" stroke-width="0.844"/>
      </g>
      <path id="Caminho_2110" data-name="Caminho 2110" d="M91.916,108.691,60,82.615l8.6-10.538L90.9,90.309l34.566-35.235,9.7,9.525Z" transform="translate(-1866.043 4516.177)" fill="none" stroke="#fff" stroke-miterlimit="10" stroke-width="0.805"/>
      <g id="成功" transform="translate(-1866.673 4613.572)">
        <path id="Caminho_1365" data-name="Caminho 1365" d="M185.471,117.424a1.561,1.561,0,1,0-1.519-1.561,1.561,1.561,0,0,0,1.519,1.561Zm-8.39,0a1.561,1.561,0,1,0-1.519-1.561,1.561,1.561,0,0,0,1.519,1.561Z" transform="translate(-89.549 -58.95)"/>
        <path id="Caminho_1369" data-name="Caminho 1369" d="M54.243,182.215l34.993-29.27L76.488,141.368a7.443,7.443,0,0,1,9.886-11.123l6.83,5.789,36.1-4.423,2.081,17.561a36.092,36.092,0,0,1-3.578,10.017,33.531,33.531,0,0,1-6.569,8.521L83.187,200.362H32.21l22.032-18.147Z" transform="translate(-32.21 -64.812)" fill="#ffc7de" stroke="#000" stroke-linecap="round" stroke-linejoin="round" stroke-miterlimit="10" stroke-width="1.108"/>
        <path id="Caminho_1370" data-name="Caminho 1370" d="M172.622,121.9l-4.033-32.652a6.164,6.164,0,1,1,12.228-1.561l3.9,33.238" transform="translate(-86.651 -45.738)"/>
        <path id="Caminho_1371" data-name="Caminho 1371" d="M172.622,121.9l-4.033-32.652a6.164,6.164,0,1,1,12.228-1.561l3.9,33.238" transform="translate(-86.651 -45.738)" fill="none" stroke="#000" stroke-linecap="round" stroke-linejoin="round" stroke-miterlimit="10" stroke-width="1.108"/>
        <path id="Caminho_1372" data-name="Caminho 1372" d="M160.574,113.15l-4.293-34.863a6.587,6.587,0,1,1,13.074-1.626l4.293,34.864" transform="translate(-81.564 -41.017)" fill="#ffc7de"/>
        <path id="Caminho_1373" data-name="Caminho 1373" d="M160.574,113.15l-4.293-34.863a6.587,6.587,0,1,1,13.074-1.626l4.293,34.864" transform="translate(-81.564 -41.017)" fill="none" stroke="#000" stroke-linecap="round" stroke-linejoin="round" stroke-miterlimit="10" stroke-width="1.108"/>
        <path id="Caminho_1374" data-name="Caminho 1374" d="M147.056,108.053,142.763,73.19a6.587,6.587,0,1,1,13.074-1.626l4.293,34.863" transform="translate(-75.98 -38.912)" fill="#ffc7de"/>
        <path id="Caminho_1375" data-name="Caminho 1375" d="M147.056,108.053,142.763,73.19a6.587,6.587,0,1,1,13.074-1.626l4.293,34.863" transform="translate(-75.98 -38.912)" fill="none" stroke="#000" stroke-linecap="round" stroke-linejoin="round" stroke-miterlimit="10" stroke-width="1.108"/>
        <path id="Caminho_1376" data-name="Caminho 1376" d="M130.329,112.912l-3.967-33.627a6.587,6.587,0,1,1,13.074-1.626l4.293,34.863" transform="translate(-69.206 -41.429)" fill="#ffc7de"/>
        <path id="Caminho_1377" data-name="Caminho 1377" d="M130.329,112.912l-3.967-33.627a6.587,6.587,0,1,1,13.074-1.626l4.293,34.863" transform="translate(-69.206 -41.429)" fill="none" stroke="#000" stroke-linecap="round" stroke-linejoin="round" stroke-miterlimit="10" stroke-width="1.108"/>
        <path id="Caminho_1378" data-name="Caminho 1378" d="M143.8,129.483s2.992,14.635,3.838,14.635,24.261,5.789,24.261,5.789l1.691-13.074-6.569-6.244Z" transform="translate(-76.428 -65.22)" fill="#ffc7de"/>
        <path id="Caminho_1379" data-name="Caminho 1379" d="M148.313,156.268s.845-15.285-15.156-14.5Z" transform="translate(-72.035 -70.28)" fill="#ffc7de"/>
        <path id="Caminho_1380" data-name="Caminho 1380" d="M177.84,152.814l-17.432-16.261a7.443,7.443,0,0,1,9.886-11.122l6.83,5.789,16.066-16.587-15.35,38.181Z" transform="translate(-82.308 -59.087)" stroke="#000" stroke-linecap="round" stroke-linejoin="round" stroke-miterlimit="10" stroke-width="1.108"/>
        <path id="Caminho_1381" data-name="Caminho 1381" d="M263.011,166.517l-44.945-39.612-21.855-19.253-14.765,19.123-6.829-5.789a7.443,7.443,0,0,0-9.887,11.122l63.87,59.669h64.242Z" transform="translate(-84.093 -56.203)" fill="#ffc7de" stroke="#000" stroke-linecap="round" stroke-linejoin="round" stroke-miterlimit="10" stroke-width="1.108"/>
        <path id="Caminho_1382" data-name="Caminho 1382" d="M234.568,120.8l-4.032-32.652a6.163,6.163,0,1,1,12.228-1.561l3.383,29.335" transform="translate(-112.237 -45.28)" fill="#ffc7de"/>
        <path id="Caminho_1383" data-name="Caminho 1383" d="M234.568,120.8l-4.032-32.652a6.163,6.163,0,1,1,12.228-1.561l3.383,29.335" transform="translate(-112.237 -45.28)" fill="none" stroke="#000" stroke-linecap="round" stroke-linejoin="round" stroke-miterlimit="10" stroke-width="1.108"/>
        <path id="Caminho_1384" data-name="Caminho 1384" d="M221.522,112.041l-4.293-34.863A6.587,6.587,0,0,1,230.3,75.552l4.293,34.864" transform="translate(-106.737 -40.559)" fill="#ffc7de"/>
        <path id="Caminho_1385" data-name="Caminho 1385" d="M221.522,112.041l-4.293-34.863A6.587,6.587,0,0,1,230.3,75.552l4.293,34.864" transform="translate(-106.737 -40.559)" fill="none" stroke="#000" stroke-linecap="round" stroke-linejoin="round" stroke-miterlimit="10" stroke-width="1.108"/>
        <path id="Caminho_1386" data-name="Caminho 1386" d="M207.116,106.944l-4.292-34.863A6.587,6.587,0,0,1,215.9,70.455l4.293,34.864" transform="translate(-100.787 -38.454)" fill="#ffc7de"/>
        <path id="Caminho_1387" data-name="Caminho 1387" d="M207.116,106.944l-4.292-34.863A6.587,6.587,0,0,1,215.9,70.455l4.293,34.864" transform="translate(-100.787 -38.454)" fill="none" stroke="#000" stroke-linecap="round" stroke-linejoin="round" stroke-miterlimit="10" stroke-width="1.108"/>
        <path id="Caminho_1388" data-name="Caminho 1388" d="M192.385,111.8l-3.968-33.627a6.587,6.587,0,1,1,13.074-1.626l4.293,34.864" transform="translate(-94.837 -40.971)" fill="#ffc7de"/>
        <path id="Caminho_1389" data-name="Caminho 1389" d="M192.385,111.8l-3.968-33.627a6.587,6.587,0,1,1,13.074-1.626l4.293,34.864" transform="translate(-94.837 -40.971)" fill="none" stroke="#000" stroke-linecap="round" stroke-linejoin="round" stroke-miterlimit="10" stroke-width="1.108"/>
        <path id="Caminho_1390" data-name="Caminho 1390" d="M205.851,128.374s2.992,14.635,3.838,14.635S233.95,148.8,233.95,148.8l2.081-13.4-4.813-5.854Z" transform="translate(-102.059 -64.762)" fill="#ffc7de"/>
        <path id="Caminho_1391" data-name="Caminho 1391" d="M300.934,179.1l-46.767-40.977" transform="translate(-122.015 -68.79)" fill="none" stroke="#000" stroke-linecap="round" stroke-linejoin="round" stroke-miterlimit="10" stroke-width="1.108"/>
        <path id="Caminho_1392" data-name="Caminho 1392" d="M116.109,169.376l1.366,1.691L101.8,181.539Z" transform="translate(-59.082 -81.697)"/>
        <path id="Caminho_1393" data-name="Caminho 1393" d="M129.039,172.753l-2.861-2.6" transform="translate(-69.152 -82.018)" fill="none" stroke="#000" stroke-linecap="round" stroke-linejoin="round" stroke-miterlimit="10" stroke-width="1.108"/>
        <path id="Caminho_1399" data-name="Caminho 1399" d="M148.784,32.618l9.562,8.846M168.362,20l1.366,18.017m13.984.325,6.5-8.455" transform="translate(-78.489 -20)" fill="none" stroke="#000" stroke-linecap="round" stroke-linejoin="round" stroke-miterlimit="10" stroke-width="1.108"/>
      </g>
    </g>
  </g>
</svg>
