<svg xmlns="http://www.w3.org/2000/svg" width="265.096" height="218.069" viewBox="0 0 265.096 218.069">
  <g id="play" transform="translate(3146.629 -4214.171)">
    <circle id="Elipse_17" data-name="Elipse 17" cx="100" cy="100" r="100" transform="translate(-3119 4223)" fill="#e53036" opacity="0.12"/>
    <g id="Grupo_2663" data-name="Grupo 2663" transform="translate(-1245.327 -317.739)">
      <g id="搜索" transform="translate(-1866.673 4532.332)">
        <path id="Caminho_1337" data-name="Caminho 1337" d="M225.924,42.155H100.252V224.44H226V43.162a4.384,4.384,0,0,1-.072-1.006Z" transform="translate(-65.938 -25.826)" fill="#fff" stroke="#000" stroke-miterlimit="10" stroke-width="0.844"/>
        <path id="Caminho_1338" data-name="Caminho 1338" d="M100.168,222.477A17.346,17.346,0,0,0,117.5,239.814h91.071a17.346,17.346,0,0,0,17.337-17.337v-.863H100.168ZM208.574,23H117.5A17.283,17.283,0,0,0,100.24,39.329H225.911A17.452,17.452,0,0,0,208.574,23Z" transform="translate(-65.926 -23)" fill="#feba0c" stroke="#000" stroke-miterlimit="10" stroke-width="0.844"/>
        <path id="Caminho_1339" data-name="Caminho 1339" d="M215.905,54.223H114.26V141.85H215.905Z" transform="translate(-68.005 -27.606)" fill="#0097e0" stroke="#000" stroke-linecap="round" stroke-linejoin="round" stroke-miterlimit="10" stroke-width="0.844"/>
        <path id="Caminho_1341" data-name="Caminho 1341" d="M113.752,206.453H216.333m-102.581,8.128h29.206m-2.23,42.515H193.1" transform="translate(-67.93 -50.064)" fill="none" stroke="#000" stroke-miterlimit="10" stroke-width="0.844"/>
        <path id="Caminho_1342" data-name="Caminho 1342" d="M171.62,34.1a1.583,1.583,0,1,0-1.583-1.583A1.583,1.583,0,0,0,171.62,34.1Z" transform="translate(-76.233 -24.17)"/>
        <path id="Caminho_1343" data-name="Caminho 1343" d="M99.647,62.24H97.129V82.526h2.518Zm0,26.616H97.129v20.285h2.518Z" transform="translate(-65.478 -28.789)" fill="#dedfea" stroke="#000" stroke-linecap="round" stroke-linejoin="round" stroke-miterlimit="10" stroke-width="0.844"/>
        <path id="Caminho_1345" data-name="Caminho 1345" d="M60,277.336H262.427" transform="translate(-60 -60.521)" fill="none" stroke="#000" stroke-miterlimit="10" stroke-width="0.844"/>
      </g>
    </g>
    <g id="Caminho_2116" data-name="Caminho 2116" transform="matrix(0.695, 0.719, -0.719, 0.695, -3034, 4336.252)" fill="#ffc7de">
      <path d="M 19.10211944580078 98.73325347900391 C 17.14115905761719 97.28834533691406 7.242737770080566 89.96959686279297 -4.507023334503174 80.83695983886719 C -16.56673049926758 71.46342468261719 -33.09763717651367 58.20849609375 -43.36503601074219 48.29337310791016 C -47.8605842590332 43.95206832885742 -51.43591690063477 38.90361404418945 -53.99171829223633 33.28822708129883 C -56.03738403320312 28.79366874694824 -57.43885040283203 23.92685508728027 -58.15718460083008 18.82298851013184 C -59.10892868041992 12.06070423126221 -58.59466934204102 6.670092105865479 -58.31396102905273 4.581443786621094 L -22.11023712158203 39.54298782348633 L -22.00117111206055 39.64830780029297 L -21.85198402404785 39.67531967163086 C -21.81690406799316 39.68166732788086 -21.49419593811035 39.73736190795898 -20.96998405456543 39.73737335205078 C -20.96991157531738 39.73737335205078 -20.96973609924316 39.73737335205078 -20.96966171264648 39.73737335205078 C -19.77575874328613 39.73737335205078 -17.46013641357422 39.44012069702148 -15.36339664459229 37.44940185546875 C -12.47130870819092 34.70354843139648 -12.65596866607666 30.63296699523926 -12.6781702041626 30.2769889831543 L -12.6781702041626 12.42409420013428 C -12.6781702041626 9.239054679870605 -11.43784999847412 6.244654655456543 -9.185676574707031 3.992481231689453 C -6.933516979217529 1.740321278572083 -3.939116954803467 0.5000013113021851 -0.7540768384933472 0.5000013113021851 C 2.430963039398193 0.5000013113021851 5.425363063812256 1.740321278572083 7.677536487579346 3.992481231689453 C 9.929696083068848 6.244654655456543 11.17001628875732 9.239054679870605 11.17001628875732 12.42409420013428 L 11.17001628875732 12.42709445953369 L 11.17005634307861 12.43009471893311 L 11.72212314605713 58.40574645996094 L 11.72462940216064 58.61444091796875 L 11.8747501373291 58.75941467285156 L 35.58929824829102 81.66028594970703 L 19.10211944580078 98.73325347900391 Z" stroke="none"/>
      <path d="M -0.7540760040283203 1 C -3.805557250976562 1 -6.674396514892578 2.188308715820312 -8.832130432128906 4.346038818359375 C -10.9898509979248 6.503761291503906 -12.1781702041626 9.372611999511719 -12.1781702041626 12.42409515380859 L -12.1781702041626 30.26292419433594 C -12.15066146850586 30.75289154052734 -12.00997352600098 34.95500946044922 -15.01912975311279 37.8120002746582 C -17.24178314208984 39.92228317260742 -19.70155715942383 40.23737335205078 -20.969970703125 40.23737335205078 C -21.53784942626953 40.23737335205078 -21.90150451660156 40.17448043823242 -21.94110298156738 40.16732025146484 L -22.23945045471191 40.11328125 L -57.93802642822266 5.639549255371094 C -58.20599365234375 8.147483825683594 -58.48134613037109 12.9322509765625 -57.66206359863281 18.7532958984375 C -56.95042419433594 23.80963897705078 -55.56242370605469 28.63021087646484 -53.53663635253906 33.08109283447266 C -51.0069694519043 38.63908004760742 -47.46788787841797 43.63621520996094 -43.01771545410156 47.93370819091797 C -32.76670455932617 57.83298873901367 -16.25164985656738 71.07499694824219 -4.202356338500977 80.44050598144531 C 6.957355499267578 89.11455535888672 16.44681167602539 96.15201568603516 19.04656600952148 98.07099914550781 L 34.88228988647461 81.672607421875 L 11.22714996337891 58.82913589477539 L 10.67001724243164 12.42409515380859 C 10.67001724243164 9.372604370117188 9.481708526611328 6.503761291503906 7.323974609375 4.346038818359375 C 5.166255950927734 2.188308715820312 2.297416687011719 1 -0.7540760040283203 1 M -0.7540760040283203 0 C 6.107563018798828 0 11.67001724243164 5.562454223632812 11.67001724243164 12.42409515380859 L 12.22206878662109 58.39974975585938 L 36.29628372192383 81.64793395996094 L 19.15801620483398 99.39514923095703 C 19.15801620483398 99.39514923095703 -23.8044376373291 67.87792205810547 -43.71237182617188 48.65304183959961 C -63.62031555175781 29.42817687988281 -58.66129302978516 3.550949096679688 -58.66129302978516 3.550949096679688 L -21.76290321350098 39.18332290649414 C -21.76290321350098 39.18332672119141 -18.53239822387695 39.76871490478516 -15.70766353607178 37.08679962158203 C -12.88292980194092 34.40489196777344 -13.1781702041626 30.29356384277344 -13.1781702041626 30.29356384277344 L -13.1781702041626 12.42409515380859 C -13.1781702041626 5.562454223632812 -7.615703582763672 0 -0.7540760040283203 0 Z" stroke="none" fill="#000"/>
    </g>
    <g id="Caminho_2117" data-name="Caminho 2117" transform="translate(-3018.883 4293.579)" fill="#ffc7de">
      <path d="M24.655,42.979a12.2,12.2,0,0,0-2.521,4.186,12.4,12.4,0,0,0-.7,4.682,12.494,12.494,0,0,0,3.974,8.612L58.546,92.1l.736,33.006,24.443-.19s.382-3.256.947-8.572,1.315-12.716,2.05-20.981c.736-8.281,1.457-17.441,1.963-26.265.506-8.843.8-17.347.665-24.285a49.76,49.76,0,0,0-3.81-18.289,53.672,53.672,0,0,0-7.878-13.133,57.159,57.159,0,0,0-7.779-7.905,36.616,36.616,0,0,0-3.516-2.64l1.095,51.539a4.271,4.271,0,0,1-.336.434,7.146,7.146,0,0,1-1.029.972,7.483,7.483,0,0,1-1.756,1.014,7.816,7.816,0,0,1-2.515.561,7.509,7.509,0,0,1-2.678-.341,9.441,9.441,0,0,1-2.114-.971,10.692,10.692,0,0,1-1.389-1.013c-.324-.28-.5-.468-.5-.468L42.074,42.384A12.351,12.351,0,0,0,33.2,39.049a12.127,12.127,0,0,0-8.547,3.929Z" stroke="none"/>
      <path d="M 82.83721923828125 123.9386978149414 L 60.24882888793945 124.116569519043 L 59.53776168823242 92.08974456787109 L 59.52860260009766 91.67652893066406 L 59.22777557373047 91.38924407958984 L 26.08796501159668 59.74173355102539 L 26.08362579345703 59.73759460449219 L 26.07925224304199 59.73351669311523 C 25.52319717407227 59.21498870849609 25.02508163452148 58.65036773681641 24.58861923217773 58.04772567749023 C 24.15214538574219 57.44507217407227 23.77731323242188 56.80435943603516 23.46785545349121 56.13367080688477 C 23.15837287902832 55.46292877197266 22.91425895690918 54.76217651367188 22.73926162719727 54.03948974609375 C 22.56424140930176 53.31670761108398 22.45834159851074 52.57195281982422 22.42531776428223 51.81330871582031 C 22.39228248596191 51.05452728271484 22.43313026428223 50.30453872680664 22.54485893249512 49.57164764404297 C 22.65660667419434 48.83861923217773 22.83926582336426 48.12267684936523 23.08983421325684 47.43215942382812 C 23.34045219421387 46.74149322509766 23.65901565551758 46.07624435424805 24.04251861572266 45.44475555419922 C 24.42610740661621 44.8131217956543 24.87467575073242 44.21525573730469 25.38521003723145 43.65950393676758 C 25.89586067199707 43.10361862182617 26.4532299041748 42.60652160644531 27.0492992401123 42.17189407348633 C 27.64549827575684 41.73717498779297 28.28041076660156 41.36497497558594 28.94600677490234 41.05901336669922 C 29.61174011230469 40.75298690795898 30.30815887451172 40.51322555541992 31.0272274017334 40.34345626831055 C 31.74642753601074 40.17364501953125 32.4882698059082 40.07386016845703 33.24470901489258 40.04780960083008 C 34.00125885009766 40.02174758911133 34.74973678588867 40.07022476196289 35.48178482055664 40.19012832641602 C 36.21392440795898 40.31003952026367 36.92959976196289 40.50138473510742 37.62044906616211 40.76103973388672 C 38.31136703491211 41.02071762084961 38.97742080688477 41.34869766235352 39.61024475097656 41.74184799194336 C 40.24310302734375 42.13501739501953 40.84270858764648 42.59334182739258 41.40069580078125 43.11367416381836 L 54.44863128662109 55.28106689453125 C 54.5335807800293 55.36962509155273 54.78346252441406 55.62157440185547 55.17487335205078 55.9459114074707 C 55.56630325317383 56.2702522277832 56.09927368164062 56.66697692871094 56.75044631958008 57.04510116577148 C 57.40164566040039 57.42324066162109 58.17109680175781 57.78279876708984 59.03549194335938 58.03277206420898 C 59.89998626708984 58.28277206420898 60.85952758789062 58.42319488525391 61.89085388183594 58.36296844482422 C 62.65277862548828 58.3184814453125 63.34273147583008 58.18663024902344 63.96253967285156 57.99942398071289 C 64.58244323730469 57.81217956542969 65.13217163085938 57.56956481933594 65.613525390625 57.30361175537109 C 66.09495544433594 57.0376091003418 66.50796508789062 56.74825668334961 66.85437774658203 56.46760559082031 C 67.20083618164062 56.18692016601562 67.48063659667969 55.91493606567383 67.69560241699219 55.68374252319336 C 67.79183197021484 55.58024978637695 67.87653350830078 55.48337936401367 67.94979858398438 55.395751953125 C 68.02304840087891 55.3081169128418 68.08487701416016 55.229736328125 68.13534545898438 55.16323852539062 C 68.18581390380859 55.09674072265625 68.22492980957031 55.0421257019043 68.25277709960938 55.00201416015625 C 68.28061676025391 54.9619140625 68.29720306396484 54.93632507324219 68.30260467529297 54.92788314819336 L 68.46534729003906 54.67339706420898 L 68.45893096923828 54.37040710449219 L 67.41185760498047 4.817398071289062 C 67.91934967041016 5.198418617248535 68.53197479248047 5.676845550537109 69.22371673583984 6.252130031585693 C 69.91548919677734 6.827420711517334 70.68637847900391 7.499563217163086 71.51034545898438 8.267983436584473 C 72.33432769775391 9.036402702331543 73.21138000488281 9.901095390319824 74.11544799804688 10.86146259307861 C 75.01950836181641 11.82180213928223 75.95055389404297 12.87779140472412 76.88254547119141 14.02881240844727 C 77.69203186035156 15.02856540679932 78.46176147460938 16.04938697814941 79.19056701660156 17.08937835693359 C 79.9193115234375 18.12928581237793 80.60713195800781 19.18832588195801 81.25287628173828 20.26459693908691 C 81.89854431152344 21.34075355529785 82.50214385986328 22.43410873413086 83.06253814697266 23.54276275634766 C 83.62287139892578 24.65126991271973 84.13997650146484 25.77504348754883 84.61273956298828 26.91217613220215 C 85.20301818847656 28.33190727233887 85.72422027587891 29.77376556396484 86.17584228515625 31.23509407043457 C 86.62734985351562 32.69608306884766 87.00929260253906 34.17647171020508 87.32112121582031 35.67359161376953 C 87.63287353515625 37.17030715942383 87.87454223632812 38.68369293212891 88.04561614990234 40.21109008789062 C 88.21662902832031 41.73801040649414 88.31707000732422 43.27888107299805 88.34645843505859 44.83103561401367 C 88.41408538818359 48.4044075012207 88.36779022216797 52.40438842773438 88.23931884765625 56.63002014160156 C 88.11096954345703 60.8515510559082 87.90064239501953 65.29773712158203 87.64002227783203 69.76877593994141 C 87.37968444824219 74.23509979248047 87.06916046142578 78.72605895996094 86.74004364013672 83.04318237304688 C 86.41127777099609 87.35584259033203 86.06390380859375 91.49530792236328 85.72934722900391 95.26430511474609 C 85.41976928710938 98.75196838378906 85.10658264160156 102.0919494628906 84.80536651611328 105.1889495849609 C 84.50438690185547 108.2835922241211 84.21531677246094 111.1359786987305 83.95368194580078 113.6511611938477 C 83.69223022460938 116.1648101806641 83.4581298828125 118.3420791625977 83.26688385009766 120.0882568359375 C 83.07572937011719 121.8336791992188 82.92733001708984 123.1487274169922 82.83721923828125 123.9386978149414 M 83.72579193115234 124.9171447753906 C 83.72579193115234 124.9171447753906 84.10750579833984 121.6612701416016 84.67235565185547 116.3456192016602 C 85.23793029785156 111.0229339599609 85.98770904541016 103.6296997070312 86.72235107421875 95.36508178710938 C 87.45848083496094 87.08380889892578 88.17971801757812 77.92447662353516 88.68492889404297 69.09998321533203 C 89.19118499755859 60.25707244873047 89.48036956787109 51.75256729125977 89.34983062744141 44.81472015380859 C 89.21908569335938 37.86629486083984 87.71858978271484 31.76624298095703 85.54016876220703 26.52563285827637 C 83.36016845703125 21.28127098083496 80.50274658203125 16.90107536315918 77.66169738769531 13.39216804504395 C 74.82009887695312 9.88259220123291 71.99599456787109 7.245975017547607 69.88246917724609 5.4869384765625 C 67.76905059814453 3.727988243103027 66.36634063720703 2.846711397171021 66.36634063720703 2.846711397171021 L 67.46102905273438 54.38565444946289 C 67.46102905273438 54.38565444946289 67.45085906982422 54.40156936645508 67.43035888671875 54.43106842041016 C 67.40986633300781 54.46056747436523 67.37905120849609 54.50365829467773 67.3377685546875 54.55802154541016 C 67.29647827148438 54.61238479614258 67.24471282958984 54.67800140380859 67.18233489990234 54.75257110595703 C 67.11995697021484 54.8271369934082 67.04695892333984 54.91065216064453 66.96318054199219 55.00078201293945 C 66.77124786376953 55.2072868347168 66.52272033691406 55.44858932495117 66.21576690673828 55.69685745239258 C 65.9088134765625 55.9450798034668 65.54344940185547 56.20025253295898 65.11775970458984 56.43453979492188 C 64.69213104248047 56.66878509521484 64.20623016357422 56.88214874267578 63.65814590454102 57.04679870605469 C 63.11015701293945 57.21142959594727 62.50001907348633 57.32736587524414 61.82585144042969 57.3668098449707 C 60.85763549804688 57.42345809936523 59.9560661315918 57.27717590332031 59.14833068847656 57.02590942382812 C 58.34069061279297 56.77468109130859 57.62678527832031 56.41847610473633 57.03387069702148 56.05519866943359 C 56.44097518920898 55.69193267822266 55.96902847290039 55.32158279418945 55.64528656005859 55.04203796386719 C 55.32155990600586 54.76250076293945 55.14603805541992 54.57377243041992 55.14603805541992 54.57377243041992 L 42.07370758056641 42.38362884521484 C 40.81880569458008 41.21341705322266 39.38943862915039 40.35254287719727 37.87937164306641 39.79787826538086 C 36.36958694458008 39.24332046508789 34.77939605712891 38.99494934082031 33.20245742797852 39.04943466186523 C 31.62605857849121 39.10391235351562 30.06310653686523 39.46102523803711 28.60707664489746 40.11735153198242 C 27.15170478820801 40.77338027954102 25.80328559875488 41.72829055786133 24.6550464630127 42.97861862182617 C 23.50740432739258 44.22828674316406 22.66835403442383 45.65479278564453 22.13355827331543 47.16426849365234 C 21.59900093078613 48.67306137084961 21.36837387084961 50.26488494873047 21.43737983703613 51.84610748291016 C 21.50636672973633 53.42680358886719 21.87479400634766 54.99710845947266 22.53849983215332 56.46360015869141 C 23.20207786560059 57.92980194091797 24.16093635559082 59.29248428344727 25.41110420227051 60.45828247070312 L 58.54594421386719 92.10092926025391 L 59.28236389160156 125.1070861816406 L 83.72579193115234 124.9171447753906 Z" stroke="none" fill="#000"/>
    </g>
    <g id="Caminho_2118" data-name="Caminho 2118" transform="translate(-3059.533 4274.865) rotate(-11)" fill="#feba0c">
      <path d="M 14.58525848388672 28.67051887512207 C 10.82294845581055 28.67051887512207 7.285828590393066 27.20539855957031 4.625478744506836 24.5450382232666 C 1.965118765830994 21.88468933105469 0.4999987781047821 18.34756851196289 0.4999987781047821 14.58525848388672 C 0.4999987781047821 10.82294845581055 1.965118765830994 7.285828590393066 4.625478744506836 4.625478267669678 C 7.285828590393066 1.965118527412415 10.82294845581055 0.4999984800815582 14.58525848388672 0.4999984800815582 C 19.42546463012695 0.4999984800815582 23.8504753112793 2.962479591369629 26.52035140991211 7.113890647888184 C 21.8976001739502 9.742617607116699 13.28052234649658 14.09375095367432 13.19112873077393 14.13885879516602 L 12.6697883605957 14.40188884735107 L 13.00993919372559 14.87651824951172 C 13.06552791595459 14.95407390594482 18.40785026550293 22.39130401611328 22.39251518249512 26.53269004821777 C 20.36200714111328 27.61278533935547 17.0333080291748 28.67051887512207 14.58525848388672 28.67051887512207 Z" stroke="none"/>
      <path d="M 14.58525848388672 0.9999980926513672 C 10.95649909973145 0.9999980926513672 7.544948577880859 2.413108825683594 4.979028701782227 4.979028701782227 C 2.413108825683594 7.544948577880859 0.9999980926513672 10.95649909973145 0.9999980926513672 14.58525848388672 C 0.9999980926513672 18.21401977539062 2.413108825683594 21.62556838989258 4.979028701782227 24.19148826599121 C 7.544948577880859 26.75740814208984 10.95649909973145 28.17051887512207 14.58525848388672 28.17051887512207 C 16.73336410522461 28.17051887512207 19.58547019958496 27.32684898376465 21.56673049926758 26.38828277587891 C 17.64078330993652 22.1807746887207 12.82261657714844 15.47347831726074 12.60353851318359 15.16777801513672 L 11.92321872711182 14.21851825714111 L 12.96589851379395 13.692458152771 C 13.05224800109863 13.64888572692871 21.1048583984375 9.58281135559082 25.80504989624023 6.9437255859375 C 23.20400619506836 3.203489303588867 19.07950401306152 0.9999980926513672 14.58525848388672 0.9999980926513672 M 14.58525848388672 -1.9073486328125e-06 C 19.90975952148438 -1.9073486328125e-06 24.56786918640137 2.853109359741211 27.21801948547363 7.290468215942383 C 22.66641807556152 9.918329238891602 13.41634845733643 14.58525848388672 13.41634845733643 14.58525848388672 C 13.41634845733643 14.58525848388672 19.16694831848145 22.60926818847656 23.20394897460938 26.64626884460449 C 21.15959930419922 27.8953685760498 17.36430740356445 29.17051887512207 14.58525848388672 29.17051887512207 C 6.530038833618164 29.17051887512207 -1.9073486328125e-06 22.64047813415527 -1.9073486328125e-06 14.58525848388672 C -1.9073486328125e-06 6.530038833618164 6.530038833618164 -1.9073486328125e-06 14.58525848388672 -1.9073486328125e-06 Z" stroke="none" fill="#000"/>
    </g>
    <circle id="Elipse_18" data-name="Elipse 18" cx="3" cy="3" r="3" transform="translate(-3031 4284)" fill="#feba0c"/>
    <circle id="Elipse_19" data-name="Elipse 19" cx="3" cy="3" r="3" transform="translate(-3019 4284)" fill="#feba0c"/>
    <circle id="Elipse_20" data-name="Elipse 20" cx="3" cy="3" r="3" transform="translate(-3007 4284)" fill="#feba0c"/>
    <path id="star-fill" d="M36.348,25.2l-4.183,3.61,1.274,5.4a1.525,1.525,0,0,1-2.277,1.657l-4.694-2.889-4.7,2.889A1.525,1.525,0,0,1,19.5,34.207l1.279-5.4L16.592,25.2a1.53,1.53,0,0,1,.866-2.682l5.485-.442,2.116-5.12a1.521,1.521,0,0,1,2.814,0l2.115,5.12,5.485.442a1.53,1.53,0,0,1,.871,2.683Z" transform="translate(-3011.063 4260.536)" fill="#feba0c"/>
    <path id="Caminho_2119" data-name="Caminho 2119" d="M-3085.421,4410.167l1.686,14.57h22.376v-14.57" transform="translate(-6.629 6.622)" fill="#ffc7de" stroke="#000" stroke-width="1"/>
    <path id="Caminho_2120" data-name="Caminho 2120" d="M-2952.417,4406.352v18.766h23.321l.82-19.5" transform="translate(-6.629 6.622)" fill="#ffc7de" stroke="#000" stroke-width="1"/>
  </g>
</svg>
