<svg xmlns="http://www.w3.org/2000/svg" width="227.779" height="230.437" viewBox="0 0 227.779 230.437">
  <g id="reward" transform="translate(-59.44 -8.001)">
    <path id="Caminho_1543" data-name="Caminho 1543" d="M309.316,191.4l-35.709,8.5,10.047,16.878,32.838-7.52Z" transform="translate(-40.534 -34.69)" fill="#ffc7de" stroke="#000" stroke-miterlimit="10" stroke-width="0.866"/>
    <path id="Caminho_1544" data-name="Caminho 1544" d="M234.362,159.085,251.126,208.4a9.545,9.545,0,0,0,11.08,6.258l38.923-8.439-5.741-20.094L267.832,192.5l-7.923-36.8-25.547,3.387Z" transform="translate(-33.091 -27.919)" fill="#feba0c" stroke="#000" stroke-miterlimit="10" stroke-width="0.866"/>
    <path id="Caminho_1545" data-name="Caminho 1545" d="M260.724,272.943l-2.813-20.9H239.885l2.755,20.9Z" transform="translate(-34.139 -46.191)" fill="#ffc7de" stroke="#000" stroke-miterlimit="10" stroke-width="0.866"/>
    <path id="Caminho_1546" data-name="Caminho 1546" d="M257.313,163.136l-4.937,41.392,6.831,47.707H238.2l-7.98-43.574a34.053,34.053,0,0,1-.344-8.382l1.549-37.144h25.892Z" transform="translate(-32.218 -29.329)" fill="#feba0c" stroke="#000" stroke-linecap="round" stroke-linejoin="round" stroke-miterlimit="10" stroke-width="0.866"/>
    <path id="Caminho_1547" data-name="Caminho 1547" d="M239.634,277.833l-14.065,7.406a2.885,2.885,0,0,0-1.549,2.583v.459a.76.76,0,0,0,.746.746h33.756a.756.756,0,0,0,.746-.861l-1.608-10.334Z" transform="translate(-31.13 -51.081)" fill="#0097e0" stroke="#000" stroke-miterlimit="10" stroke-width="0.866"/>
    <path id="Caminho_1548" data-name="Caminho 1548" d="M224.019,290.16H259.21" transform="translate(-31.13 -53.419)" fill="none" stroke="#000" stroke-miterlimit="10" stroke-width="0.433"/>
    <path id="Caminho_1549" data-name="Caminho 1549" d="M260.777,274.177l-18.141-.516-.058-.575,18.084.058Z" transform="translate(-34.649 -50.181)"/>
    <path id="Caminho_1550" data-name="Caminho 1550" d="M319.829,209.612l11.252,11.2a3.039,3.039,0,0,0,2.928.746l.459-.115a.763.763,0,0,0,.517-.918l-9.76-31.4a.984.984,0,0,0-1.263-.632l-9.76,3.043,5.626,18.084Z" transform="translate(-48.233 -34.127)" fill="#0097e0" stroke="#000" stroke-miterlimit="10" stroke-width="0.866"/>
    <path id="Caminho_1551" data-name="Caminho 1551" d="M336.241,221.564,325.965,188.5" transform="translate(-50.463 -34.139)" fill="none" stroke="#000" stroke-miterlimit="10" stroke-width="0.433"/>
    <path id="Caminho_1552" data-name="Caminho 1552" d="M297.546,152.792l1.78,6.832s1.78,6.831,2.3,10.047c.4,2.7-2.009,2.468-2.468,1.722,0,0,.689,2.641-.976,3.272a2.2,2.2,0,0,1-2.814-1.378,1.753,1.753,0,0,1-1.549,1.952,2.413,2.413,0,0,1-2.583-1.895c-.746-2.3-2.469-7.923-2.469-7.923s-1.033,3.043-1.664,4.707c-.861,2.3-3.674,1.665-3.5-.689.115-2.124,2.124-9.185,2.124-9.185l-1.147-3.674,12.974-3.789Z" transform="translate(-42.427 -27.368)" fill="#ffc7de" stroke="#000" stroke-linecap="round" stroke-linejoin="round" stroke-miterlimit="10" stroke-width="0.866"/>
    <path id="Caminho_1553" data-name="Caminho 1553" d="M300.367,173.273l-2.239-8.324m-1.607,10.276-2.354-8.21m-4.192.288s3.559-.115,3.961-4.593" transform="translate(-43.638 -29.249)" fill="none" stroke="#000" stroke-linecap="round" stroke-linejoin="round" stroke-miterlimit="10" stroke-width="0.866"/>
    <path id="Caminho_1554" data-name="Caminho 1554" d="M101.076,270.982l2.813-20.9h18.026l-2.755,20.9Zm-29.8-15.444L87.123,241.7l13.606,11.884L84.941,267.479,71.279,255.538Z" transform="translate(-2.163 -44.229)" fill="#ffc7de" stroke="#000" stroke-miterlimit="10" stroke-width="0.866"/>
    <path id="Caminho_1555" data-name="Caminho 1555" d="M256.9,112.932l12.8,7.348L277.4,146.23l15.673-3.732-11.482-34.044a9.766,9.766,0,0,0-5.053-5.626L247.256,88.82l9.645,24.112Z" transform="translate(-35.536 -15.236)" fill="#e53036" stroke="#000" stroke-miterlimit="10" stroke-width="0.866"/>
    <path id="Caminho_1556" data-name="Caminho 1556" d="M128.278,149.887l8.669,47.477a14.4,14.4,0,0,1-4.191,12.975L96.473,245.3,81.834,230.087l29.968-26.81L106,163.033" transform="translate(-4.165 -26.817)" fill="#feba0c"/>
    <path id="Caminho_1557" data-name="Caminho 1557" d="M128.278,149.887l8.669,47.477a14.4,14.4,0,0,1-4.191,12.975L96.473,245.3,81.834,230.087l29.968-26.81L106,163.033" transform="translate(-4.165 -26.817)" fill="none" stroke="#000" stroke-linecap="round" stroke-linejoin="round" stroke-miterlimit="10" stroke-width="0.866"/>
    <path id="Caminho_1558" data-name="Caminho 1558" d="M108.584,167.6l5.8,37.775-6.831,47.707h21.012l7.98-43.574a34.056,34.056,0,0,0,.344-8.381L134.476,167.6Z" transform="translate(-9.042 -30.176)" fill="#feba0c" stroke="#000" stroke-linecap="round" stroke-linejoin="round" stroke-miterlimit="10" stroke-width="0.866"/>
    <path id="Caminho_1559" data-name="Caminho 1559" d="M181.014,31.3a1.394,1.394,0,0,1-.976.8c-1.78.344-3.158,1.608-4.076,3.847a13.017,13.017,0,0,0-.861,3.617,1.295,1.295,0,1,1-2.583-.172,14.282,14.282,0,0,1,1.033-4.364c1.263-3.1,3.33-4.994,6.028-5.51a1.3,1.3,0,0,1,1.493,1.032.857.857,0,0,1-.058.746Z" transform="translate(-21.362 -3.986)" fill="#ffc7de" stroke="#000" stroke-miterlimit="10" stroke-width="0.866"/>
    <path id="Caminho_1560" data-name="Caminho 1560" d="M179.4,27.536a1.469,1.469,0,0,1-.459.575c-.172.114-3.961,2.87-5.052,9.932a1.307,1.307,0,1,1-2.583-.4c1.263-8.267,5.971-11.539,6.142-11.712a1.362,1.362,0,0,1,1.837.344,1.417,1.417,0,0,1,.115,1.263Z" transform="translate(-21.13 -3.267)" fill="#ffc7de" stroke="#000" stroke-miterlimit="10" stroke-width="0.866"/>
    <path id="Caminho_1561" data-name="Caminho 1561" d="M175.2,33.277s-.574,2.755.229,2.641l-.459,1.2A9.315,9.315,0,0,1,175.2,33.277Z" transform="translate(-21.809 -4.702)"/>
    <path id="Caminho_1562" data-name="Caminho 1562" d="M175.27,37.1a1.489,1.489,0,0,0,.746,1.607l-.344,1.551s-.517-1.435-.746-2.411l.344-.746Z" transform="translate(-21.819 -5.428)"/>
    <path id="Caminho_1563" data-name="Caminho 1563" d="M174.012,36.085a1.448,1.448,0,0,0-1.608.976l-.976,3.1a17.03,17.03,0,0,1-1.952-6.086c.23-4.88,2.239-7.348,2.354-7.463a1.062,1.062,0,0,0,.287-.689,1.3,1.3,0,0,0-.459-1.148,1.286,1.286,0,0,0-1.837.173,13.783,13.783,0,0,0-2.7,6.659,17.414,17.414,0,0,1-.919,3.387c-.918,2.353-8.439,29.451-8.439,29.451L146.8,69.153l3.559,15.214L165.4,77.822a4.5,4.5,0,0,0,2.641-3.273l7.176-36.626a1.586,1.586,0,0,0-1.206-1.837Z" transform="translate(-16.485 -3.032)" fill="#ffc7de" stroke="#000" stroke-linecap="round" stroke-linejoin="round" stroke-miterlimit="10" stroke-width="0.866"/>
    <path id="Caminho_1564" data-name="Caminho 1564" d="M122.823,76.151A11.022,11.022,0,1,0,111.8,65.128,11.023,11.023,0,0,0,122.823,76.151Z" transform="translate(-9.848 -8.652)" fill="#ffc7de" stroke="#000" stroke-miterlimit="10" stroke-width="0.866"/>
    <path id="Caminho_1565" data-name="Caminho 1565" d="M118.73,54.719c-2.01.631-8.5,4.535-6.717,13.089a8.956,8.956,0,0,0,3.5,5.339c4.248-1.321,4.42-7.463,4.765-7.407,2.3.46,4.65-1.492,6.142-4.477a10.744,10.744,0,0,0,.919-6.43A12.346,12.346,0,0,0,118.73,54.719Z" transform="translate(-9.83 -8.633)"/>
    <path id="Caminho_1566" data-name="Caminho 1566" d="M120.072,71.924a3.1,3.1,0,1,0-3.1-3.1A3.1,3.1,0,0,0,120.072,71.924Z" transform="translate(-10.829 -10.855)" fill="#ffc7de"/>
    <path id="Caminho_1567" data-name="Caminho 1567" d="M134.528,58.427s-4.019-.861-5.511-2.239l1.32-1.091c-.058,0,3.1,1.493,4.191,3.331Z" transform="translate(-13.113 -8.84)"/>
    <path id="Caminho_1568" data-name="Caminho 1568" d="M118.956,68.913l2.526.574" transform="translate(-11.205 -11.46)" fill="none" stroke="#000" stroke-linecap="round" stroke-linejoin="round" stroke-miterlimit="10" stroke-width="0.866"/>
    <path id="Caminho_1569" data-name="Caminho 1569" d="M237.215,76.823A10.506,10.506,0,1,0,226.71,66.316a10.506,10.506,0,0,0,10.505,10.506Z" transform="translate(-31.64 -8.976)" fill="#ffc7de" stroke="#000" stroke-miterlimit="10" stroke-width="0.866"/>
    <path id="Caminho_1570" data-name="Caminho 1570" d="M242.809,56.486a10.541,10.541,0,0,1,6.086,12.629,8.742,8.742,0,0,1-3.445,5.052c-4.019-1.378-4.076-7.176-4.363-7.119-2.181.4-4.363-1.492-5.741-4.363a10.007,10.007,0,0,1-.746-6.142c1.148-.4,3.617-1.55,8.21-.057Z" transform="translate(-33.101 -8.962)"/>
    <path id="Caminho_1571" data-name="Caminho 1571" d="M243.3,72.9a2.985,2.985,0,1,0-2.986-2.985A2.985,2.985,0,0,0,243.3,72.9Z" transform="translate(-34.22 -11.085)" fill="#ffc7de"/>
    <path id="Caminho_1572" data-name="Caminho 1572" d="M229.9,59.759s3.847-.689,5.282-2.01l-1.206-1.091C234.032,56.717,230.989,58.037,229.9,59.759Z" transform="translate(-32.245 -9.136)"/>
    <path id="Caminho_1573" data-name="Caminho 1573" d="M245.2,70.049l-2.411.516" transform="translate(-34.689 -11.676)" fill="none" stroke="#000" stroke-linecap="round" stroke-linejoin="round" stroke-miterlimit="10" stroke-width="0.866"/>
    <path id="Caminho_1574" data-name="Caminho 1574" d="M191.608,51.243q-.712-3.319-1.32-6.659a35.7,35.7,0,0,0-2.814-10.162,1.814,1.814,0,0,1,.459-2.411,2.135,2.135,0,0,1,2.813.976c-.287-.689-.689-1.952-.057-2.583.689-.689,2.066-.746,3.157.632-.058-.69,1.55-1.493,2.756-.345a18.249,18.249,0,0,1,2.353,3.387s.861-1.263,2.181,0c1.091,1.033,2.814,5.224,1.837,10.505l1.263,4.88Z" transform="translate(-24.151 -4.067)" fill="#ffc7de" stroke="#000" stroke-linecap="round" stroke-linejoin="round" stroke-miterlimit="10" stroke-width="0.866"/>
    <path id="Caminho_1575" data-name="Caminho 1575" d="M195.326,31.294a24.14,24.14,0,0,1,2.928,6.258l-2.928-6.258Z" transform="translate(-25.688 -4.326)" fill="#fff"/>
    <path id="Caminho_1576" data-name="Caminho 1576" d="M195.326,31.294a24.14,24.14,0,0,1,2.928,6.258" transform="translate(-25.688 -4.326)" fill="none" stroke="#000" stroke-linecap="round" stroke-linejoin="round" stroke-miterlimit="10" stroke-width="0.866"/>
    <path id="Caminho_1577" data-name="Caminho 1577" d="M201.632,35.048a34.4,34.4,0,0,1,2.181,5.8Z" transform="translate(-26.884 -5.038)" fill="#fff"/>
    <path id="Caminho_1578" data-name="Caminho 1578" d="M199.308,34.269a34.405,34.405,0,0,1,2.181,5.8M191.1,33.121a20.45,20.45,0,0,1,2.354,5.281m2.3-7,1.263-.229m-4.707.172,1.493-.4m-4.42,2.412,1.206-.632m10.159,2.241.976-.23" transform="translate(-24.56 -4.259)" fill="none" stroke="#000" stroke-linecap="round" stroke-linejoin="round" stroke-miterlimit="10" stroke-width="0.866"/>
    <path id="Caminho_1579" data-name="Caminho 1579" d="M106.558,96.73v49.543h29.565V96.385l12.4-5.971-6.43-17.969s-19.175,7.693-25.375,10.334c-5.971,2.583-10.161,7.463-10.161,13.95ZM218.85,80.54l-23.538-7.864-5.224-23.882-14.754,3.215,5.454,27.844a12.691,12.691,0,0,0,8.267,9.53l15.385,5.454,2.813,46.673h30.886s-3.1-28.36-4.019-37.775c-1.148-10.506-6.142-19.807-15.27-23.194Z" transform="translate(-8.854 -7.645)" fill="#e53036" stroke="#000" stroke-linecap="round" stroke-linejoin="round" stroke-miterlimit="10" stroke-width="0.866"/>
    <path id="Caminho_1580" data-name="Caminho 1580" d="M227.278,105.68l8.669,3.043" transform="translate(-31.748 -18.433)" fill="none" stroke="#000" stroke-linecap="round" stroke-linejoin="round" stroke-miterlimit="10" stroke-width="0.866"/>
    <path id="Caminho_1581" data-name="Caminho 1581" d="M117.989,273.2l14.065,7.406a2.883,2.883,0,0,1,1.55,2.583v.459a.76.76,0,0,1-.746.746H99.1a.755.755,0,0,1-.746-.861L99.963,273.2h18.026Zm-31.574-5.914,1.493,10.621,2.526,1.837a4.514,4.514,0,0,1,1.837,3.617v.4a.664.664,0,0,1-.689.69H85.726a1.445,1.445,0,0,1-1.148-.517L65.289,262.175a.641.641,0,0,1,.057-.919l9.875-7.865,11.194,13.893Z" transform="translate(-0.996 -46.446)" fill="#0097e0" stroke="#000" stroke-miterlimit="10" stroke-width="0.866"/>
    <path id="Caminho_1582" data-name="Caminho 1582" d="M163.981,132.035h8.5l-1.78,18.428a1.316,1.316,0,0,1-1.321,1.206H158.469a1.316,1.316,0,0,1-1.321-1.206l-1.78-18.428Z" transform="translate(-18.11 -23.431)" fill="#e53036" stroke="#000" stroke-linecap="round" stroke-linejoin="round" stroke-miterlimit="10" stroke-width="0.866"/>
    <path id="Caminho_1583" data-name="Caminho 1583" d="M163.607,124.242h8.956l1.205,6.315h-20.38l1.2-6.315h9.014Z" transform="translate(-17.735 -21.953)" fill="#fff" stroke="#000" stroke-linecap="round" stroke-miterlimit="10" stroke-width="0.866"/>
    <path id="Caminho_1584" data-name="Caminho 1584" d="M164.347,122.046h5.569a1.52,1.52,0,0,1,1.493,1.493v.287H157.286v-.287a1.52,1.52,0,0,1,1.493-1.493Z" transform="translate(-18.474 -21.537)" fill="#dedfea" stroke="#000" stroke-miterlimit="10" stroke-width="0.866"/>
    <path id="Caminho_1585" data-name="Caminho 1585" d="M155.443,132.035l16.936,1.033.115-1.033Z" transform="translate(-18.124 -23.431)"/>
    <path id="Caminho_1586" data-name="Caminho 1586" d="M161.071,109.646a2.832,2.832,0,0,0-1.894-.919,1.4,1.4,0,0,1-1.263-1.148,2.781,2.781,0,0,0-1.148-1.78,2.848,2.848,0,0,0-3.387.173,2.749,2.749,0,0,0,0,4.075,2.532,2.532,0,0,0,1.723.69,1.278,1.278,0,0,1,1.2,1.091,2.767,2.767,0,0,0,.861,1.664,2.7,2.7,0,0,0,4.019-.459A2.755,2.755,0,0,0,161.071,109.646Zm-11.312-8.9a1.608,1.608,0,1,0-1.572-1.607,1.608,1.608,0,0,0,1.572,1.607Z" transform="translate(-16.748 -16.888)" fill="#fff" stroke="#000" stroke-linecap="round" stroke-miterlimit="10" stroke-width="0.866"/>
    <path id="Caminho_1587" data-name="Caminho 1587" d="M163.565,137.819a5.056,5.056,0,0,0,.23-5.167l-.115-.172-16.419.057-.459-2.928a10.008,10.008,0,0,0-1.435,1.091,6.722,6.722,0,0,0-1.148,1.55L128.2,129.265l.058-16.074-18.371,7.061v14.41a8.092,8.092,0,0,0,7.291,8.037l27.212,2.7,2.928,1.148a9.265,9.265,0,0,0,2.526.344H160.58a2.289,2.289,0,0,0,2.3-1.837,4.686,4.686,0,0,0-.058-2.182v-.057l.287-.575a4.947,4.947,0,0,0,.23-4.134l.229-.287Z" transform="translate(-9.485 -19.857)" fill="#ffc7de" stroke="#000" stroke-miterlimit="10" stroke-width="0.866"/>
    <path id="Caminho_1588" data-name="Caminho 1588" d="M128.953,106.6v16.132H108.688V106.6" transform="translate(-9.258 -18.608)" fill="#e53036"/>
    <path id="Caminho_1589" data-name="Caminho 1589" d="M128.953,106.6v16.132H108.688V106.6" transform="translate(-9.258 -18.608)" fill="none" stroke="#000" stroke-linecap="round" stroke-linejoin="round" stroke-miterlimit="10" stroke-width="0.866"/>
    <path id="Caminho_1590" data-name="Caminho 1590" d="M226.351,71.535l21.586,3.559-4.822,11.138-16.764-14.7ZM115.723,134.684l20.725,4.249v-1.952Zm-6.543,15.844.229,2.124,26.925-1.378-.172-.632-26.982-.114Z" transform="translate(-9.351 -11.958)"/>
    <path id="Caminho_1591" data-name="Caminho 1591" d="M176.706,43.835l-1.78,2.985" transform="translate(-21.819 -6.704)" fill="none" stroke="#000" stroke-linecap="round" stroke-linejoin="round" stroke-miterlimit="10" stroke-width="0.866"/>
    <path id="Caminho_1592" data-name="Caminho 1592" d="M110.457,126.58l17.682.976.058-.976H110.457Z" transform="translate(-9.593 -22.397)"/>
    <path id="Caminho_1593" data-name="Caminho 1593" d="M133.74,284.961H98.548m-6.2.171H86.318a1.645,1.645,0,0,1-1.263-.574L65.823,262.743" transform="translate(-1.128 -48.219)" fill="none" stroke="#000" stroke-miterlimit="10" stroke-width="0.433"/>
    <path id="Caminho_1594" data-name="Caminho 1594" d="M108.613,251.941l18.2-.517v-.574l-18.026.058Zm122.454-49.027,2.239,11.539-2.468-1.205-1.435-10.1,4.937-41.392Zm20.841-44.09,13.261-2.182-.287-.8-12.975,2.985Z" transform="translate(-9.243 -27.945)"/>
    <path id="Caminho_1595" data-name="Caminho 1595" d="M59.873,237.946H263.158m12.4,0h5.511M153.508,11.869l3.617,5.856m7.693-9.242-1.033,8.554m5.681,2.641,6.086-2.928" transform="translate(0)" fill="none" stroke="#000" stroke-linecap="round" stroke-linejoin="round" stroke-miterlimit="10" stroke-width="0.866"/>
    <circle id="Elipse_21" data-name="Elipse 21" cx="100" cy="100" r="100" transform="translate(70.777 38.004)" fill="#e53036" opacity="0.12"/>
  </g>
</svg>
