<svg xmlns="http://www.w3.org/2000/svg" width="319.187" height="256.008" viewBox="0 0 319.187 256.008">
  <g id="use-case" transform="translate(1713.435 -4576.199)">
    <g id="空" transform="translate(-1773 4551.524)">
      <path id="Caminho_1319" data-name="Caminho 1319" d="M102.958,162.245l94.388-43.571,94.286,43.571-94.286,23.776-94.388-23.776Z" stroke="#000" stroke-linecap="round" stroke-linejoin="round" stroke-miterlimit="10" stroke-width="0.87"/>
      <path id="Caminho_1332" data-name="Caminho 1332" d="M102.958,162.246v90.306L197.346,280.1V186.021l-94.388-23.775Zm188.775,0v90.306L197.346,280.1V186.021Z" fill="#feba0c" stroke="#000" stroke-miterlimit="10" stroke-width="0.87"/>
      <path id="Caminho_1333" data-name="Caminho 1333" d="M103.469,170.715l.1,45.306,55.306,15.918,38.469-45.918-93.877-15.306Zm187.961,0v45.306l-55.306,15.918-38.47-45.918Z" stroke="#000" stroke-linecap="round" stroke-linejoin="round" stroke-miterlimit="10" stroke-width="0.87"/>
      <path id="Caminho_1334" data-name="Caminho 1334" d="M292.042,162.246l45,34.183-99.694,27.449-39.8-37.857,94.49-23.775Zm-189.083,0L60,195l97.551,28.877,39.8-37.857-94.388-23.775Z" fill="#feba0c" stroke="#000" stroke-linecap="round" stroke-linejoin="round" stroke-miterlimit="10" stroke-width="0.87"/>
    </g>
    <g id="空-2" data-name="空" transform="translate(-1783.989 4528.221)">
      <path id="Caminho_1324" data-name="Caminho 1324" d="M240.971,195.255V144.54l22.982,18.834a18.179,18.179,0,0,0,26.458-1.122L312.72,136.58l17.152,9.978a3.5,3.5,0,0,0,4.6-1.01,3.424,3.424,0,0,0-1.009-4.708L316.981,130.3l16.7,10.65a3.28,3.28,0,0,0,3.587-5.493l-16.256-10.65,16.032,10.538a3.716,3.716,0,1,0,4.147-6.167l-15.806-10.538,15.918,10.538a3.755,3.755,0,0,0,5.157-1.009,3.794,3.794,0,0,0-1.121-5.269l-26.682-16.592,9.192-5.045a4.28,4.28,0,0,0,1.794-5.829,4.466,4.466,0,0,0-5.829-2.018l-8.968,4.373c-6.615,3.251-11.884,6.95-16.032,11.659l-19.282,21.637s-24.664-21.749-35.426-31.614a23.47,23.47,0,0,0-16.256-6.614l-25.224.671h.9L178.3,92.858a23.48,23.48,0,0,0-16.256,6.614,137.527,137.527,0,0,0-18.255,20.77l21.394,24.3-.267,50.152Z" transform="translate(3.251 4.385)" fill="#ffc7de" stroke="#000" stroke-miterlimit="10" stroke-width="0.87"/>
      <path id="Caminho_1774" data-name="Caminho 1774" d="M19.9,65.071l8.524-4.656A5.921,5.921,0,0,1,25.5,57.59c-.621-1.282.184-3.814.848-4.754,1.413-2,3.949-1.319,7.729-.419,3.054.724,6.753,1.664,6.753,1.664l31.123-16.8L52.055,0,0,27.785,19.9,65.071Z" transform="matrix(-0.719, 0.695, -0.695, -0.719, 389.117, 121.286)" fill="#fff" stroke="#000" stroke-linejoin="round" stroke-miterlimit="10" stroke-width="0.882"/>
      <path id="Caminho_1775" data-name="Caminho 1775" d="M15.13,52.619l3.509-1.859s.046-3.631,2.3-4.981c2.4-1.1,5.321.223,6.427.288,9.7-4.2,32.39-17.091,32.39-17.091L43.558,0,0,22.862Z" transform="matrix(-0.719, 0.695, -0.695, -0.719, 380.704, 121.454)" fill="#0097e0"/>
      <path id="Caminho_1776" data-name="Caminho 1776" d="M11.166,25.847,20.4,20.92,9.23,0,0,4.927Z" transform="matrix(-0.719, 0.695, -0.695, -0.719, 368.175, 97.258)" fill="#feba0c" stroke="#000" stroke-miterlimit="10" stroke-width="0.882"/>
      <path id="Caminho_1325" data-name="Caminho 1325" d="M271.975,123.912c-8.184-7.287-20.515-18.274-27.354-24.44a23.479,23.479,0,0,0-16.256-6.614l-25.224.672h.9l-25.224-.672a23.48,23.48,0,0,0-16.256,6.614c-6.838,6.278-19.17,17.264-27.354,24.44l22.645,26.794,7.512-6.166.225,49.788L206.032,204.9l36.348-9.2-.451-51.154,7.512,6.166,22.533-26.794Z" transform="translate(2.403 4.385)" fill="#e53036" stroke="#000" stroke-miterlimit="10" stroke-width="0.87"/>
      <path id="Caminho_1326" data-name="Caminho 1326" d="M292.041,116.874A11.77,11.77,0,0,0,303.812,105.1" transform="translate(17.876 5.593)" fill="none" stroke="#000" stroke-linecap="round" stroke-linejoin="round" stroke-miterlimit="10" stroke-width="0.87"/>
      <path id="Caminho_1327" data-name="Caminho 1327" d="M294.344,136.862l.862-5.943-7.96,14.686,7.1-8.742Z" transform="translate(17.403 8.14)" stroke="#000" stroke-linecap="round" stroke-linejoin="round" stroke-miterlimit="10" stroke-width="0.87"/>
      <path id="Caminho_1330" data-name="Caminho 1330" d="M224.749,85.581a4.548,4.548,0,0,0-2.129.449,22.483,22.483,0,0,0-44.17,0,6.566,6.566,0,0,0-2.13-.448,5.605,5.605,0,1,0,0,11.211,5.2,5.2,0,0,0,2.579-.673,22.485,22.485,0,0,0,43.274,0,5.2,5.2,0,0,0,2.577.673,5.605,5.605,0,1,0,0-11.211Z" transform="translate(5.457 -19.343)" fill="#ffc7de" stroke="#000" stroke-miterlimit="10" stroke-width="0.87"/>
      <path id="Caminho_1331" data-name="Caminho 1331" d="M199.858,67.755s-17.152-.672-22.309,18.722a5.115,5.115,0,0,1,2.018,1.794c.56.784,1.121.56,1.121-.336a19.6,19.6,0,0,1,4.933-10.874c.784-.672.9.448,1.345,1.457,2.915,7.736,15.471,18.161,32.063,10.09.9-.448,3.475-2.13,3.475-2.13-5.157-19.395-22.309-18.721-22.309-18.721h-.336Z" transform="translate(6.132 -19.343)"/>
      <g id="mão" transform="translate(110.841 70.2)">
        <g id="Caminho_1780" data-name="Caminho 1780" transform="translate(38.603 26.748) rotate(135)" fill="#ffc7de">
          <path d="M 4.446867942810059 37.3278694152832 C 3.351537942886353 37.3278694152832 2.340877771377563 36.90816116333008 1.601047873497009 36.14604187011719 C 0.8595478534698486 35.3822021484375 0.4691978693008423 34.35475921630859 0.5019078850746155 33.25300216674805 L 1.34405779838562 4.885280609130859 C 1.413747906684875 2.537960529327393 3.380117893218994 0.5715904235839844 5.727437973022461 0.5019004344940186 C 5.770137786865234 0.5006304383277893 5.81306791305542 0.5000004172325134 5.855427742004395 0.5000004172325134 C 6.95075798034668 0.5000004172325134 7.961427688598633 0.9197204113006592 8.701268196105957 1.681840419769287 C 9.442768096923828 2.445680379867554 9.833117485046387 3.473120450973511 9.800407409667969 4.574880599975586 L 8.958248138427734 32.94260025024414 C 8.888567924499512 35.28990936279297 6.922197818756104 37.25627899169922 4.574877738952637 37.32596969604492 C 4.532177925109863 37.32723999023438 4.489227771759033 37.3278694152832 4.446867942810059 37.3278694152832 Z" stroke="none"/>
          <path d="M 5.855427742004395 1 C 5.817947864532471 1 5.77995777130127 1.000560760498047 5.742268085479736 1.001682281494141 C 3.654647827148438 1.06365966796875 1.905817985534668 2.812488555908203 1.843837738037109 4.900112152099609 L 1.001688003540039 33.26784133911133 C 0.9730281829833984 34.23329162597656 1.313287734985352 35.13177108764648 1.959797859191895 35.79776000976562 C 2.629851341247559 36.48800277709961 3.558030605316162 36.85596466064453 4.560047626495361 36.82619094848633 C 6.647677898406982 36.76420974731445 8.39649772644043 35.01538848876953 8.458467483520508 32.92777252197266 L 9.300627708435059 4.560039520263672 C 9.329287528991699 3.594589233398438 8.989027976989746 2.696109771728516 8.342508316040039 2.030120849609375 C 7.697657585144043 1.365840911865234 6.814397811889648 1 5.855427742004395 1 M 5.855431079864502 -3.814697265625e-06 C 8.398475646972656 -3.814697265625e-06 10.37629318237305 2.026191711425781 10.3001880645752 4.5897216796875 L 9.458027839660645 32.95743942260742 C 9.380517959594727 35.56861114501953 7.200898170471191 37.74822998046875 4.589717864990234 37.82575225830078 C 1.978561401367188 37.90327072143555 -0.07539176940917969 35.84933090209961 0.002127647399902344 33.2381591796875 L 0.8442773818969727 4.870441436767578 C 0.9217977523803711 2.259262084960938 3.101418018341064 0.07963943481445312 5.712597846984863 0.0021209716796875 C 5.760250568389893 0.000705718994140625 5.808158874511719 -3.814697265625e-06 5.855431079864502 -3.814697265625e-06 Z" stroke="none" fill="#000"/>
        </g>
        <g id="Caminho_1777" data-name="Caminho 1777" transform="matrix(-0.105, 0.995, -0.995, -0.105, 56.332, 24.029)" fill="#ffc7de">
          <path d="M 21.78843116760254 47.20476531982422 C 21.16594123840332 47.06081390380859 16.88823890686035 46.00591659545898 14.65727138519287 43.74474334716797 C 13.35218143463135 42.42210388183594 12.20887088775635 39.64956665039062 11.35093116760254 35.72683334350586 C 10.65528106689453 32.54610443115234 10.34492111206055 29.55463409423828 10.24294090270996 28.57161521911621 C 10.23199081420898 28.46607398986816 10.22353076934814 28.38457489013672 10.21735095977783 28.32945442199707 C 10.16406154632568 27.85404586791992 9.843920707702637 27.80271530151367 9.708741188049316 27.80271530151367 C 9.463971138000488 27.80271530151367 9.20958137512207 27.99411582946777 9.207541465759277 28.31440544128418 L 9.207361221313477 28.34220504760742 L 9.210270881652832 28.36984443664551 L 9.859896659851074 34.55058288574219 C 9.830141067504883 36.79735565185547 7.863548278808594 38.63226318359375 5.462711334228516 38.64666366577148 L 4.833161354064941 38.65044403076172 L 4.804571151733398 38.6505241394043 C 3.592281103134155 38.6505241394043 2.472271203994751 38.19526672363281 1.650851130485535 37.36861419677734 C 0.9021711945533752 36.61515426635742 0.4934911727905273 35.62911605834961 0.5000811815261841 34.59213638305664 L 0.5657411813735962 24.26314544677734 C 0.5801011919975281 22.00415420532227 2.552791118621826 20.15456581115723 4.963181018829346 20.14010429382324 L 4.987821102142334 20.13995552062988 L 5.012331008911133 20.13738441467285 L 46.53039169311523 15.78323459625244 L 46.71261215209961 15.76412487030029 L 46.83934020996094 15.63181495666504 L 61.12944793701172 0.7115330100059509 C 62.18151473999023 1.758062243461609 65.39426422119141 5.045614719390869 68.54601287841797 9.200244903564453 C 70.78289794921875 12.14890480041504 72.55126190185547 14.9500846862793 73.80197906494141 17.5259952545166 C 75.34615325927734 20.70627021789551 76.09709930419922 23.53944969177246 76.03401184082031 25.94724464416504 C 75.82817840576172 29.76535415649414 73.98432159423828 33.54500961303711 70.84158325195312 36.59103393554688 C 67.24011993408203 40.08167266845703 62.05688095092773 42.51348876953125 55.85000228881836 43.62461090087891 C 50.93870162963867 43.98274993896484 23.51532745361328 47.01369476318359 21.78843116760254 47.20476531982422 Z" stroke="none"/>
          <path d="M 61.136474609375 1.427036285400391 L 46.94697189331055 16.24228668212891 L 5.015464782714844 20.63980865478516 L 4.9661865234375 20.64009857177734 C 2.828086853027344 20.65291976928711 1.078346252441406 22.27963066101074 1.065727233886719 24.26632118225098 L 1.000068664550781 34.59531021118164 C 0.9943389892578125 35.49815368652344 1.351417541503906 36.35791015625 2.005531311035156 37.01619720458984 C 2.732383728027344 37.74768829345703 3.726425170898438 38.15053176879883 4.804557800292969 38.15053176879883 L 5.459716796875 38.14667510986328 C 7.579147338867188 38.13396453857422 9.316963195800781 36.53551483154297 9.35943603515625 34.57249069213867 L 8.707183837890625 28.36666488647461 L 8.707550048828125 28.31090927124023 C 8.711326599121094 27.74557685852051 9.151092529296875 27.30272102355957 9.708740234375 27.30272102355957 C 9.800514221191406 27.30272102355957 10.60845184326172 27.32996559143066 10.71422576904297 28.27377510070801 C 10.72052001953125 28.32983207702637 10.7291259765625 28.41271018981934 10.74027252197266 28.52004241943359 C 11.51708221435547 36.00762176513672 13.07449340820312 41.42881011962891 15.0131950378418 43.39358520507812 C 17.06961822509766 45.47784423828125 21.00527572631836 46.50383377075195 21.81892776489258 46.69832229614258 C 24.42955780029297 46.40938949584961 50.81404113769531 43.49390411376953 55.78746795654297 43.12784957885742 C 61.88462829589844 42.03224945068359 66.96878814697266 39.64833450317383 70.49359130859375 36.23199844360352 C 73.54352569580078 33.27593231201172 75.33330535888672 29.61679077148438 75.53433990478516 25.92742729187012 C 75.64225006103516 21.69692802429199 73.09111022949219 16.02147102355957 68.15590667724609 9.513309478759766 C 65.32139587402344 5.775382995605469 62.43510818481445 2.741645812988281 61.136474609375 1.427036285400391 M 61.11857223510742 0 C 61.11857223510742 0 76.82675170898438 15.04305267333984 76.53363800048828 25.96740913391113 C 76.13202667236328 33.48310852050781 69.55818176269531 41.68746566772461 55.91226959228516 44.12141036987305 C 50.89414978027344 44.48343276977539 21.76027297973633 47.71092987060547 21.76027297973633 47.71092987060547 C 21.76027297973633 47.71092987060547 16.83611679077148 46.66499710083008 14.30134963989258 44.09592056274414 C 10.57765197753906 40.32213973999023 9.71063232421875 27.81300926208496 9.707527160644531 28.31758689880371 L 10.36013793945312 34.52680969238281 C 10.34402465820312 37.06216430664062 8.152717590332031 39.13054275512695 5.465713500976562 39.14665222167969 L 4.836151123046875 39.15043258666992 C 2.148406982421875 39.16651153564453 -0.0160369873046875 37.12431335449219 9.1552734375e-05 34.58895492553711 L 0.0657501220703125 24.25996398925781 C 0.0818634033203125 21.724609375 2.273170471191406 19.65623092651367 4.960182189941406 19.6401195526123 L 46.47824096679688 15.28596496582031 L 61.11857223510742 0 Z" stroke="none" fill="#000"/>
        </g>
        <g id="Caminho_1778" data-name="Caminho 1778" transform="translate(28.98 29.246) rotate(135)" fill="#ffc7de">
          <path d="M 4.178691864013672 19.63543701171875 C 3.157761812210083 19.63552665710449 2.215791702270508 19.24445724487305 1.526301741600037 18.53426742553711 C 0.8367348313331604 17.82398796081543 0.4729698300361633 16.86905860900879 0.5015645027160645 15.84454345703125 L 0.7279701232910156 12.03736591339111 C 1.091313481330872 12.11962699890137 1.583058714866638 12.19833755493164 2.134551763534546 12.19836616516113 C 2.134629249572754 12.19836616516113 2.134792804718018 12.19836616516113 2.134870529174805 12.19836616516113 C 3.405810356140137 12.19836616516113 5.147537708282471 11.77961444854736 6.228561878204346 9.784636497497559 C 7.992334365844727 6.529712677001953 3.804469347000122 2.507021188735962 2.841381311416626 1.644503593444824 C 2.856489896774292 1.18236255645752 2.881155490875244 0.6649239659309387 2.948045015335083 0.5131988525390625 C 2.975981473922729 0.5074443221092224 3.034092903137207 0.4999965727329254 3.147711753845215 0.4999965727329254 C 3.264831781387329 0.4999965727329254 3.41176176071167 0.5075265765190125 3.58191180229187 0.5162366032600403 C 3.834681749343872 0.5291765928268433 4.149261951446533 0.5452865958213806 4.528331756591797 0.5452865958213806 C 4.65986156463623 0.5452865958213806 4.793091773986816 0.5433166027069092 4.92432165145874 0.5394166111946106 C 4.964151859283447 0.5382365584373474 5.004211902618408 0.5376365780830383 5.043721675872803 0.5376365780830383 C 6.064781665802002 0.5376365780830383 7.006821632385254 0.9287965893745422 7.696311950683594 1.63905656337738 C 8.387372016906738 2.350936651229858 8.751161575317383 3.308646678924561 8.720671653747559 4.335756778717041 L 8.387931823730469 15.54384613037109 C 8.322912216186523 17.73396682739258 6.488231658935547 19.56864738464355 4.298121929168701 19.63365745544434 C 4.258281707763672 19.63483619689941 4.218211650848389 19.63542747497559 4.178691864013672 19.63543701171875 Z" stroke="none"/>
          <path d="M 3.373141288757324 1.006532669067383 C 3.363255500793457 1.133926391601562 3.355615139007568 1.283424377441406 3.349506378173828 1.432567596435547 C 3.84238862991333 1.890844345092773 4.742237567901611 2.786291122436523 5.538811683654785 3.895536422729492 C 7.634841918945312 6.814306259155273 7.309871673583984 8.838626861572266 6.668161869049072 10.02285671234131 C 5.733251571655273 11.7481861114502 4.123191833496094 12.69836616516113 2.134581565856934 12.69836616516113 C 1.794443130493164 12.69836616516113 1.476705551147461 12.67118644714355 1.193533897399902 12.63132476806641 L 1.001165390014648 15.8661413192749 C 0.9784145355224609 16.75162315368652 1.291950702667236 17.57493019104004 1.884902000427246 18.18574714660645 C 2.502662658691406 18.82211875915527 3.356287002563477 19.16150856018066 4.283291816711426 19.13387680053711 C 6.213701725006104 19.07656669616699 7.830842018127441 17.45943641662598 7.8881516456604 15.52901649475098 L 8.220891952514648 4.320926666259766 C 8.247342109680176 3.43000602722168 7.933571815490723 2.601156234741211 7.33739185333252 1.987075805664062 C 6.719590187072754 1.350725173950195 5.866428375244141 1.011650085449219 4.939131736755371 1.039196014404297 C 4.802891731262207 1.043235778808594 4.664681911468506 1.045286178588867 4.528331756591797 1.045286178588867 C 4.136471748352051 1.045286178588867 3.814801692962646 1.028816223144531 3.556331634521484 1.01557731628418 C 3.491454124450684 1.01225471496582 3.430084228515625 1.009113311767578 3.373141288757324 1.006532669067383 M 3.147712707519531 0 C 3.521371364593506 0 4.076945304870605 0.06434059143066406 4.909482002258301 0.03963661193847656 C 7.363203048706055 -0.03323554992675781 9.293292045593262 1.896875381469727 9.220451354980469 4.35059642791748 L 8.887711524963379 15.55868721008301 C 8.814862251281738 18.01240730285645 6.766681671142578 20.06059646606445 4.312961578369141 20.13343620300293 C 1.859242916107178 20.20627784729004 -0.07084846496582031 18.27619743347168 0.001992225646972656 15.82247638702393 L 0.2658014297485352 11.38631629943848 C 0.2658014297485352 11.38631629943848 4.015892505645752 12.81849670410156 5.788951873779297 9.546426773071289 C 7.56201171875 6.27436637878418 2.334361553192139 1.865297317504883 2.334361553192139 1.865297317504883 C 2.38249397277832 0.244110107421875 2.420090675354004 0 3.147712707519531 0 Z" stroke="none" fill="#000"/>
        </g>
        <g id="Caminho_1781" data-name="Caminho 1781" transform="translate(17.29 38.504) rotate(135)" fill="#ffc7de">
          <path d="M 4.178732395172119 14.86985111236572 C 3.15767240524292 14.86985111236572 2.215632438659668 14.47868061065674 1.526132345199585 13.7684211730957 C 0.8350723385810852 13.05654048919678 0.4712823331356049 12.09883117675781 0.5017723441123962 11.0717306137085 L 0.6941523551940918 4.591590881347656 C 0.7591723203659058 2.401470899581909 2.593852281570435 0.566790759563446 4.783962249755859 0.5017808079719543 C 4.823792457580566 0.5006008148193359 4.863852500915527 0.5000007748603821 4.903372287750244 0.5000007748603821 C 5.924422264099121 0.5000007748603821 6.866462230682373 0.891160786151886 7.555952548980713 1.601420760154724 C 8.247012138366699 2.313300848007202 8.61080265045166 3.271010875701904 8.580312728881836 4.298120975494385 L 8.387932777404785 10.7782506942749 C 8.322912216186523 12.96836090087891 6.488232135772705 14.80305099487305 4.298122406005859 14.86807060241699 C 4.258292198181152 14.8692512512207 4.218242168426514 14.86985111236572 4.178732395172119 14.86985111236572 Z" stroke="none"/>
          <path d="M 4.9033522605896 0.9999904632568359 C 4.868752479553223 0.9999904632568359 4.833682537078857 1.000511169433594 4.798802375793457 1.001550674438477 C 2.868382453918457 1.058860778808594 1.251242160797119 2.676000595092773 1.19393253326416 4.606420516967773 L 1.001552581787109 11.08656120300293 C 0.9751119613647461 11.97737121582031 1.288822174072266 12.80612087249756 1.884902477264404 13.4201602935791 C 2.502663612365723 14.05653190612793 3.35654354095459 14.39592170715332 4.283282279968262 14.36829090118408 C 6.213702201843262 14.31098079681396 7.8308424949646 12.69384098052979 7.888152122497559 10.76342010498047 L 8.080532073974609 4.283290863037109 C 8.106972694396973 3.392480850219727 7.793262481689453 2.563720703125 7.197182178497314 1.949680328369141 C 6.602672576904297 1.337261199951172 5.788042068481445 0.9999904632568359 4.9033522605896 0.9999904632568359 M 4.90334939956665 -4.76837158203125e-06 C 7.293052673339844 -4.76837158203125e-06 9.151602745056152 1.904009819030762 9.080092430114746 4.312960624694824 L 8.887712478637695 10.7930908203125 C 8.814862251281738 13.2468204498291 6.766682624816895 15.29500102996826 4.312962532043457 15.36785125732422 C 1.859195709228516 15.4406909942627 -0.07084751129150391 13.51061058044434 0.001992225646972656 11.0568904876709 L 0.1943721771240234 4.576750755310059 C 0.2672224044799805 2.123030662536621 2.315402507781982 0.07484054565429688 4.769122123718262 0.001990318298339844 C 4.813901901245117 0.0006618499755859375 4.858928203582764 -4.76837158203125e-06 4.90334939956665 -4.76837158203125e-06 Z" stroke="none" fill="#000"/>
        </g>
        <g id="Caminho_1782" data-name="Caminho 1782" transform="translate(22.694 33.634) rotate(135)" fill="#ffc7de">
          <path d="M 4.178721904754639 17.23382949829102 C 3.157671928405762 17.23382949829102 2.215631723403931 16.84267044067383 1.526141762733459 16.13240051269531 C 0.8350718021392822 15.42051982879639 0.4712818264961243 14.46280956268311 0.5017718076705933 13.43570041656494 L 0.7643318176269531 4.59158992767334 C 0.8293418288230896 2.401469945907593 2.664021730422974 0.566789984703064 4.854141712188721 0.5017799735069275 C 4.893971920013428 0.5005999803543091 4.934031963348389 0.4999999701976776 4.973541736602783 0.4999999701976776 C 5.994601726531982 0.4999999701976776 6.936641693115234 0.8911599516868591 7.626132011413574 1.601419925689697 C 8.317192077636719 2.313299894332886 8.680981636047363 3.271009922027588 8.650491714477539 4.298120021820068 L 8.387931823730469 13.14223003387451 C 8.322912216186523 15.33234024047852 6.488221645355225 17.16703033447266 4.298111915588379 17.2320499420166 C 4.258281707763672 17.23323059082031 4.218231678009033 17.23382949829102 4.178721904754639 17.23382949829102 Z" stroke="none"/>
          <path d="M 4.973531723022461 0.9999904632568359 C 4.938931941986084 0.9999904632568359 4.903861999511719 1.000509262084961 4.868981838226318 1.001550674438477 C 2.938551902770996 1.058860778808594 1.32142162322998 2.675999641418457 1.264111995697021 4.606419563293457 L 1.001551628112793 13.45053005218506 C 0.9751119613647461 14.34134006500244 1.288821697235107 15.17010021209717 1.884902000427246 15.78413963317871 C 2.502663135528564 16.42051124572754 3.356546878814697 16.75990104675293 4.283271789550781 16.73226928710938 C 6.213701725006104 16.67495918273926 7.830842018127441 15.05782032012939 7.8881516456604 13.12739944458008 L 8.150712013244629 4.283289909362793 C 8.177151679992676 3.39247989654541 7.863441944122314 2.563719749450684 7.267361640930176 1.949680328369141 C 6.6728515625 1.337259292602539 5.858222007751465 0.9999904632568359 4.973531723022461 0.9999904632568359 M 4.97352933883667 -5.7220458984375e-06 C 7.363232135772705 -5.7220458984375e-06 9.221782684326172 1.904009819030762 9.150271415710449 4.312959671020508 L 8.887711524963379 13.15707015991211 C 8.814862251281738 15.61079025268555 6.766681671142578 17.65897941589355 4.312952041625977 17.73183059692383 C 1.859194755554199 17.8046703338623 -0.07084846496582031 15.87457942962646 0.001992225646972656 13.42086029052734 L 0.264552116394043 4.576749801635742 C 0.3373918533325195 2.123029708862305 2.385581970214844 0.07484054565429688 4.839301586151123 0.001989364624023438 C 4.884081363677979 0.000659942626953125 4.929107666015625 -5.7220458984375e-06 4.97352933883667 -5.7220458984375e-06 Z" stroke="none" fill="#000"/>
        </g>
        <path id="Caminho_1779" data-name="Caminho 1779" d="M4.936,0S-.191,2.63.006,10.556" transform="translate(21.7 31.451)" fill="none" stroke="#000" stroke-width="1"/>
      </g>
      <path id="Caminho_1783" data-name="Caminho 1783" d="M10.512,17.659,0,9.071,2.832,5.6l7.346,6L21.563,0l3.194,3.137L10.512,17.659Z" transform="translate(332.939 110.489) rotate(20)" fill="none" stroke="#fff" stroke-miterlimit="10" stroke-width="0.805"/>
    </g>
  </g>
</svg>
